<svg id="layer_1" data-name="layer 1" xmlns="http://www.w3.org/2000/svg" viewBox="0 0 256 256"><defs><style>.cls-1{fill:#563d7c;}.cls-2{fill:#fff;}</style></defs><path class="cls-1" d="M0,223a33,33,0,0,0,33,33H223a33,33,0,0,0,33-33V33A33,33,0,0,0,223,0H33A33,33,0,0,0,0,33Z"/><path class="cls-2" d="M106.16,113.24V77h31.91a50.26,50.26,0,0,1,8.79.76,22.11,22.11,0,0,1,7.49,2.72,14.4,14.4,0,0,1,5.21,5.43,18,18,0,0,1,1.95,8.9q0,9.76-5.86,14.11t-15,4.34ZM72.07,50.5v155h75.12a79.07,79.07,0,0,0,20.29-2.61,54.1,54.1,0,0,0,17.59-8,39.51,39.51,0,0,0,12.26-14q4.56-8.58,4.56-20.3,0-14.53-7-24.85t-21.39-14.44q10.43-5,15.74-12.81t5.32-19.54q0-10.85-3.58-18.23a29.76,29.76,0,0,0-10.09-11.83,43.8,43.8,0,0,0-15.63-6.41,96.74,96.74,0,0,0-20.19-2ZM106.16,179V136.47h37.12q11.07,0,17.8,5.1t6.73,17a21.41,21.41,0,0,1-2.06,10,16.42,16.42,0,0,1-5.54,6.18,23.35,23.35,0,0,1-8,3.26,45.54,45.54,0,0,1-9.55,1Z"/></svg>