<svg id="layer_1" data-name="layer 1" xmlns="http://www.w3.org/2000/svg" viewBox="0 0 255.14 255.14"><defs><style>.cls-1{fill:#932279;}.cls-2{fill:#efa724;}.cls-3{fill:#262577;}.cls-4{fill:#9ccd2a;}.cls-5{fill:#fff;}</style></defs><path class="cls-1" d="M107.86,118.64l9.23,9.18L107.86,137h-65v30.57L3.29,127.82,42.9,88.74v29.9Zm28.55-78.07h78.93V119.5H136.41V40.57Z" transform="translate(-0.39 -0.39)"/><path class="cls-2" d="M137.27,107.86l-9.17,9.23-9.17-9.23v-65H88.35L128.1,3.29,167.18,42.9H137.27v65Zm-.86,28.55h78.93v78.93H136.41V136.41Z" transform="translate(-0.39 -0.39)"/><path class="cls-3" d="M148.06,137.27l-9.23-9.17,9.23-9.17h65V88.35l39.61,39.75L213,167.18V137.27Zm-107.49-.86H119.5v78.93H40.57V136.41Z" transform="translate(-0.39 -0.39)"/><path class="cls-4" d="M118.64,148.06l9.18-9.23,9.17,9.23v65h30.57l-39.74,39.61L88.74,213h29.9v-65ZM40.57,40.57H119.5V119.5H40.57V40.57Z" transform="translate(-0.39 -0.39)"/><path class="cls-5" d="M37.75,37.75h84.57v84.57H37.75V37.75Zm5.64,78.93h73.29V43.39H43.39v73.29ZM133.6,37.75h84.56v84.57H133.6V37.75Zm5.63,78.93h73.3V43.39h-73.3v73.29ZM133.6,133.6h84.56v84.57H133.6V133.6Zm5.63,78.93h73.3v-73.3h-73.3v73.3ZM37.75,133.6h84.57v84.57H37.75V133.6Zm5.64,78.93h73.29v-73.3H43.39v73.3Z" transform="translate(-0.39 -0.39)"/><path class="cls-5" d="M60.19,187.76.39,128l59.8-59.8L120,128l-59.8,59.8ZM8.36,128l51.83,51.82L112,128,60.19,76.13,8.36,128ZM128,120l-59.8-59.8L128,.39l59.8,59.8L128,120ZM76.13,60.19,128,112l51.82-51.82L128,8.36,76.13,60.19Zm119.6,127.57L135.93,128l59.8-59.8,59.8,59.8-59.8,59.8ZM143.9,128l51.83,51.82L247.55,128,195.73,76.13,143.9,128ZM128,255.53l-59.8-59.8,59.8-59.8,59.8,59.8L128,255.53Zm-51.83-59.8L128,247.55l51.82-51.82L128,143.91,76.13,195.73Z" transform="translate(-0.39 -0.39)"/></svg>