<svg id="layer_1" data-name="layer 1" xmlns="http://www.w3.org/2000/svg" viewBox="0 0 34 38"><defs><style>.cls-1{fill:#0277bd;}.cls-2{fill:#039be5;}.cls-3{fill:#fff;}.cls-4{fill:#eee;}</style></defs><g id="surface1"><path class="cls-1" d="M41,5H7l3,34,14,4,14-4Z" transform="translate(-7 -5)"/><path class="cls-2" d="M24,8V39.9l11.2-3.2L37.7,8Z" transform="translate(-7 -5)"/><path class="cls-3" d="M33.1,13H24v4h4.9l-.3,4H24v4h4.4l-.3,4.5L24,30.9v4.2l7.9-2.6L32.6,21Z" transform="translate(-7 -5)"/><path class="cls-4" d="M24,13v4H15.1l-.3-4Zm-4.6,8,.2,4H24V21Zm.4,6h-4l.3,5.5L24,35.1V30.9l-4.1-1.4Z" transform="translate(-7 -5)"/></g></svg>