<svg id="레이어_1" data-name="레이어 1" xmlns="http://www.w3.org/2000/svg" viewBox="0 0 255.19 325.39"><defs><style>.cls-1{fill:#2ba977;}</style></defs><path class="cls-1" d="M114.78,0h53.28V244.19c-27.29,5.16-47.38,7.19-69.12,7.19C33.87,251.32,0,222.25,0,166.41,0,112.62,35.93,77.7,91.61,77.7a86.5,86.5,0,0,1,23.17,2.72Zm1.87,124.43a53.57,53.57,0,0,0-18-2.72c-26.95,0-42.52,16.44-42.52,45.24,0,28.05,14.88,43.54,42.17,43.54a125.68,125.68,0,0,0,18.31-1.36Z"/><path class="cls-1" d="M255.19,84.26V206.52c0,42.11-3.16,62.36-12.41,79.81-8.64,16.79-20,27.37-43.55,39.06l-49.43-23.3c23.52-10.93,34.9-20.59,42.17-35.33,7.61-15.07,10-32.52,10-78.44V84.26Z"/><path class="cls-1" d="M196.61,0h53.28V54.13H196.61V0Z"/></svg>