<svg id="layer_1" data-name="layer 1" xmlns="http://www.w3.org/2000/svg" xmlns:xlink="http://www.w3.org/1999/xlink" viewBox="0 0 256 278.2"><defs><style>.cls-1{fill:url(#무제_그라디언트);}</style><linearGradient id="무제_그라디언트" x1="-175.81" y1="533.86" x2="-175.81" y2="534.77" gradientTransform="matrix(256, 0, 0, -278.2, 45135, 148858.41)" gradientUnits="userSpaceOnUse"><stop offset="0" stop-color="#fff100"/><stop offset="1" stop-color="#f05a28"/></linearGradient></defs><path class="cls-1" d="M255.59,122.78a105.33,105.33,0,0,0-2.76-16,97.87,97.87,0,0,0-7.2-19.16,106.91,106.91,0,0,0-13.41-20.54,100.26,100.26,0,0,0-7.29-7.82c3.91-15.56-4.75-29-4.75-29-14.94-.92-24.44,4.67-28,7.2-.61-.23-1.15-.54-1.76-.77-2.53-1-5.14-2-7.9-2.83s-5.44-1.61-8.27-2.3-5.67-1.23-8.59-1.69l-1.53-.23C157.65,8.74,139,0,139,0,118,13.26,114.12,31.81,114.12,31.81l-.23,1.07c-1.15.3-2.3.69-3.45,1-1.61.46-3.22,1.08-4.76,1.69s-3.14,1.23-4.75,1.92c-3.14,1.38-6.28,2.91-9.35,4.59s-5.9,3.53-8.73,5.45l-.77-.31c-29-11-54.64,2.22-54.64,2.22C25.06,80.24,39,99.63,41.77,103.16c-.69,1.91-1.3,3.83-1.92,5.74a134.23,134.23,0,0,0-4.75,21.54c-.15,1.07-.31,2.14-.38,3.22C7.89,146.92,0,174,0,174c22.3,25.67,48.36,27.28,48.36,27.28l.08-.07A117.53,117.53,0,0,0,59.85,218c1.84,2.22,3.68,4.29,5.68,6.36a60,60,0,0,0,1.15,42.61,69.84,69.84,0,0,0,44.6-13.56c2.45.84,5,1.61,7.51,2.22a110,110,0,0,0,23.3,3.45c1.91.08,3.91.15,5.82.08h2.76l1.23-.08v.08c11.72,16.7,32.26,19.08,32.26,19.08,14.64-15.41,15.48-30.73,15.48-34v-1.38a83.71,83.71,0,0,0,8.74-7A94,94,0,0,0,223.63,218l1.15-1.84c16.56.92,28.28-10.27,28.28-10.27-2.76-17.24-12.57-25.67-14.64-27.28a.8.8,0,0,0-.23-.16c-.15-.07-.15-.15-.15-.15h0a1.8,1.8,0,0,0-.38-.23c.07-1.07.15-2.07.23-3.14.15-1.84.15-3.76.15-5.6v-2.91l-.08-1.15-.07-1.53a8.16,8.16,0,0,0-.16-1.46c-.07-.46-.07-1-.15-1.45l-.15-1.46-.23-1.45c-.31-1.92-.62-3.76-1.08-5.68a75.11,75.11,0,0,0-8.43-20.84,70.45,70.45,0,0,0-51.27-33.65,60.62,60.62,0,0,0-9.88-.53h-2.46l-1.22.07c-.46,0-.92.08-1.31.08a50.15,50.15,0,0,0-5,.69,54.54,54.54,0,0,0-18.24,6.9,56,56,0,0,0-14,12,54.81,54.81,0,0,0-8.89,15A52.86,52.86,0,0,0,111.89,148c-.07,1.3-.07,2.68-.07,4v1l.07,1.07c.08.62.08,1.31.16,1.92a41.89,41.89,0,0,0,1.45,7.74A41.45,41.45,0,0,0,130,186.54a41.4,41.4,0,0,0,11.34,5.36,39.25,39.25,0,0,0,11.27,1.61h2a2.32,2.32,0,0,0,.69-.07c.38,0,.77-.08,1.15-.08a.45.45,0,0,0,.31-.08l.38-.07c.23,0,.46-.08.69-.08l1.3-.23a5.68,5.68,0,0,0,1.23-.31,20.49,20.49,0,0,0,2.37-.69,31.17,31.17,0,0,0,4.37-1.84,44.09,44.09,0,0,0,3.83-2.3,8.26,8.26,0,0,0,1-.76,2.9,2.9,0,0,0,.46-4.06,2.81,2.81,0,0,0-3.6-.69l-.92.46a26.68,26.68,0,0,1-3.3,1.38,27.9,27.9,0,0,1-3.6.92l-1.91.23c-.31,0-.62.07-1,.07h-1.84a6.35,6.35,0,0,1-1.15-.07h-.46a1.29,1.29,0,0,1-.54-.08c-.38-.08-.69-.08-1.07-.15a29.94,29.94,0,0,1-8.35-2.46,29.12,29.12,0,0,1-7.74-5.05,29.42,29.42,0,0,1-6.06-7.59,29,29,0,0,1-3.29-9.51,28.46,28.46,0,0,1-.31-5.13c0-.46.08-.92.08-1.38v-.61c0-.23.07-.46.07-.69.08-.92.23-1.84.39-2.76a36.84,36.84,0,0,1,10.65-20,43.15,43.15,0,0,1,4.6-3.76,31.45,31.45,0,0,1,5.21-3,36.5,36.5,0,0,1,5.67-2.07,38.29,38.29,0,0,1,6-1.07c1-.08,2-.15,3.06-.15h2.38l.84.07a37.48,37.48,0,0,1,6.52,1,45.56,45.56,0,0,1,31,23.91,42.76,42.76,0,0,1,4.21,12.95c.16,1.15.31,2.3.39,3.45l.07.84.08.85v3.29c0,.54-.08,1.46-.08,2-.07,1.22-.23,2.52-.38,3.75s-.38,2.45-.61,3.68-.54,2.45-.85,3.6a63.39,63.39,0,0,1-2.29,7.13,62.45,62.45,0,0,1-7.21,13.1,59.18,59.18,0,0,1-23.14,18.93,55.67,55.67,0,0,1-14.41,4.37,49.27,49.27,0,0,1-7.51.77h-3.83a37,37,0,0,1-4.07-.23,78.67,78.67,0,0,1-30.73-8.81,78.12,78.12,0,0,1-33.11-33.65,79.56,79.56,0,0,1-5.67-14.64,80.61,80.61,0,0,1-2.6-15.4l-.08-1v-6.82c.08-2.53.31-5.21.61-7.82s.77-5.28,1.31-7.89,1.15-5.21,1.91-7.82a104.46,104.46,0,0,1,5.44-14.79A83.33,83.33,0,0,1,97.94,80.24c1.69-1.69,3.45-3.22,5.29-4.75S107,72.65,109,71.35a60.71,60.71,0,0,1,6-3.52c1-.54,2.07-1.08,3.15-1.54l1.61-.69,1.61-.69a61.67,61.67,0,0,1,6.66-2.37,15.75,15.75,0,0,0,1.69-.54l1.69-.46c1.14-.31,2.29-.61,3.44-.84.54-.16,1.15-.23,1.77-.39s1.15-.23,1.76-.38,1.15-.23,1.76-.31l.85-.15.91-.15,1.77-.23,2-.23c.54-.08,1.46-.15,2-.23s.85-.08,1.23-.15l.84-.08.39-.08h.46c.68-.07,1.3-.07,2-.15l1-.08h.77c.54,0,1.15-.07,1.69-.07,2.22-.08,4.52-.08,6.74,0a90.81,90.81,0,0,1,13,1.45,91.83,91.83,0,0,1,23.76,7.9A93.83,93.83,0,0,1,219,80c.38.31.69.61,1.07.92s.69.61,1,.92c.69.61,1.3,1.23,2,1.84s1.3,1.23,1.91,1.84,1.23,1.23,1.84,1.91a99.83,99.83,0,0,1,16.33,22.92l.46.92.46.92c.3.61.61,1.23.84,1.84s.54,1.15.84,1.76.54,1.15.77,1.76c.92,2.3,1.84,4.53,2.53,6.59,1.15,3.38,2,6.37,2.68,9a2.05,2.05,0,0,0,2.3,1.61,2.12,2.12,0,0,0,2-2.15A75.79,75.79,0,0,0,255.59,122.78Z"/></svg>