<svg id="InfluxData_Symbol_Only" data-name="InfluxData Symbol Only" xmlns="http://www.w3.org/2000/svg" viewBox="0 0 900 900"><defs><style>.cls-1{fill:none;}.cls-2{fill:#22adf6;}</style></defs><rect id="Background" class="cls-1" width="900" height="900"/><path id="Cuboctahedron" class="cls-2" d="M867.1,537.9l-81-352.7c-4.6-19.3-22.1-38.6-41.4-44.2L374.5,26.8C369.9,25,364.4,25,358.8,25a70.49,70.49,0,0,0-43.3,15.7L50.3,287.5c-14.7,12.9-22.1,38.7-17.5,57.1l86.6,377.6c4.6,19.3,22.1,38.7,41.4,44.2L507,873.2c4.6,1.8,10.1,1.8,15.7,1.8A70.49,70.49,0,0,0,566,859.3L849.6,596C864.4,582.2,871.7,557.3,867.1,537.9ZM413.2,110.6l254.1,78.3c10.1,2.8,10.1,7.4,0,10.1L533.8,229.4c-10.1,2.8-23.9-1.8-31.3-9.2l-93-100.4C401.2,111.6,403,107.9,413.2,110.6ZM571.5,566.5c2.8,10.1-3.7,15.7-13.8,12.9L283.3,494.7c-10.1-2.8-12-11.1-4.6-18.4L488.7,281c7.4-7.4,15.7-4.6,18.4,5.5ZM119.4,317.8,342.3,110.6c7.4-7.4,19.3-6.4,26.7.9L480.4,232.2c7.4,7.4,6.4,19.3-.9,26.7L256.6,466.1c-7.4,7.4-19.3,6.4-26.7-.9L118.5,344.6C111.1,336.3,112.1,324.3,119.4,317.8Zm54.4,328.8L114.9,387.8c-2.8-10.1,1.8-12,8.3-4.6l93,100.4c7.4,7.4,10.1,22.1,7.4,32.2L183,646.6C180.2,656.7,175.6,656.7,173.8,646.6Zm325.9,151-291-89.3c-10.1-2.8-15.7-13.8-12.9-23.9l48.8-156.6c2.8-10.1,13.8-15.7,23.9-12.9l291,89.3c10.1,2.8,15.7,13.8,12.9,23.9L523.6,784.7C520,794.9,509.9,800.4,499.7,797.6ZM757.5,585.8,563.3,766.3c-7.4,7.4-11,4.6-8.3-5.5L595.5,630c2.8-10.1,13.8-20.3,23.9-22.1l133.5-30.4C763.1,574.8,764.9,579.4,757.5,585.8Zm21.2-38.6L618.5,584c-10.1,2.8-20.3-3.7-23-13.8L527.4,273.7c-2.8-10.1,3.7-20.3,13.8-23l160.2-36.8c10.1-2.8,20.3,3.7,23,13.8l68.1,296.5C795.3,535.2,788.9,545.3,778.7,547.2Z"/></svg>