<svg id="레이어_1" data-name="레이어 1" xmlns="http://www.w3.org/2000/svg" viewBox="0 0 254.73 345.38"><defs><style>.cls-1{fill:#5382a1;}.cls-2{fill:#e76f00;}</style></defs><path class="cls-1" d="M82.55,267.47s-13.19,7.68,9.4,10.28c27.37,3.12,41.35,2.67,71.51-3a124.67,124.67,0,0,0,19,9.28c-67.61,29-153-1.68-99.92-16.52" transform="translate(-0.52 -0.37)"/><path class="cls-1" d="M74.29,229.66s-14.8,11,7.81,13.3c29.23,3,52.32,3.26,92.27-4.44a40.91,40.91,0,0,0,14.22,8.67c-81.75,23.9-172.8,1.89-114.3-17.53" transform="translate(-0.52 -0.37)"/><path class="cls-2" d="M143.94,165.51C160.6,184.7,139.56,202,139.56,202s42.31-21.84,22.88-49.19c-18.15-25.5-32.06-38.17,43.27-81.86,0,0-118.24,29.53-61.77,94.6" transform="translate(-0.52 -0.37)"/><path class="cls-1" d="M233.36,295.44s9.77,8.05-10.75,14.28c-39,11.82-162.44,15.39-196.72.47-12.32-5.36,10.79-12.8,18.06-14.37a46.79,46.79,0,0,1,11.91-1.33c-13.7-9.66-88.58,18.95-38,27.15,137.85,22.35,251.29-10.07,215.53-26.2" transform="translate(-0.52 -0.37)"/><path class="cls-1" d="M88.9,190.48S26.13,205.39,66.67,210.8c17.12,2.3,51.25,1.78,83-.89,26-2.19,52.07-6.85,52.07-6.85A111,111,0,0,0,186,211.51c-63.75,16.77-186.89,9-151.44-8.18,30-14.49,54.36-12.85,54.36-12.85" transform="translate(-0.52 -0.37)"/><path class="cls-1" d="M201.51,253.42c64.8-33.67,34.83-66,13.92-61.67a49.35,49.35,0,0,0-7.41,2,11.79,11.79,0,0,1,5.54-4.27c41.37-14.54,73.19,42.9-13.36,65.65a5.68,5.68,0,0,0,1.31-1.7" transform="translate(-0.52 -0.37)"/><path class="cls-2" d="M162.44.37s35.89,35.9-34,91.1c-56.07,44.28-12.78,69.53,0,98.38-32.73-29.53-56.75-55.53-40.64-79.72C111.4,74.61,176.92,57.39,162.44.37" transform="translate(-0.52 -0.37)"/><path class="cls-1" d="M95.27,344.67c62.2,4,157.71-2.21,160-31.64,0,0-4.35,11.15-51.4,20-53.09,10-118.57,8.83-157.4,2.42,0,0,8,6.58,48.83,9.21" transform="translate(-0.52 -0.37)"/></svg>