<svg id="layer_1" data-name="layer 1" xmlns="http://www.w3.org/2000/svg" viewBox="0 0 256 415.65"><path d="M201.82,230.22a54,54,0,0,0-40.64,18.46l-25.46-18a68.72,68.72,0,0,0,.14-47.2l25.41-17.84a54.06,54.06,0,1,0-11.38-20.43L124.47,163a70,70,0,0,0-43.34-25.18V107.2A54.27,54.27,0,1,0,57.87,107v31a69.9,69.9,0,0,0,.48,137.8v32.78a54.19,54.19,0,1,0,23.27,0V275.79A69.94,69.94,0,0,0,124.22,251l25.63,18.14a54.17,54.17,0,1,0,52-38.94Zm0-126.7a26.27,26.27,0,1,1-26.27,26.27,26.31,26.31,0,0,1,26.27-26.27ZM43.72,54.18A26.27,26.27,0,1,1,70,80.45,26.3,26.3,0,0,1,43.72,54.18ZM96.26,361.46A26.27,26.27,0,1,1,70,335.19a26.3,26.3,0,0,1,26.27,26.27ZM70,243.49a36.64,36.64,0,1,1,36.64-36.64A36.68,36.68,0,0,1,70,243.49Zm131.83,67.18a26.27,26.27,0,1,1,26.27-26.27,26.3,26.3,0,0,1-26.27,26.27Z"/></svg>