<svg id="레이어_1" data-name="레이어 1" xmlns="http://www.w3.org/2000/svg" viewBox="0 0 255.43 248.73"><defs><style>.cls-1{fill:#326de6;}.cls-2{fill:#fff;}</style></defs><path class="cls-1" d="M82.09,244.93a19.46,19.46,0,0,1-15.36-7.43L8.92,165.66a19.38,19.38,0,0,1-3.8-16.85L25.77,59.13A19.52,19.52,0,0,1,36.5,45.75l83.57-40a19.62,19.62,0,0,1,17.18,0l83.57,39.8A19.6,19.6,0,0,1,231.56,59l20.64,89.69a19.91,19.91,0,0,1-3.8,16.84l-57.8,71.85a20,20,0,0,1-15.36,7.43l-93.15.16Z" transform="translate(-0.53 -0.17)"/><path class="cls-2" d="M128.5,7.93a16.17,16.17,0,0,1,6.77,1.48l83.57,39.81A16.06,16.06,0,0,1,227.43,60l20.64,89.69a15.42,15.42,0,0,1-3.14,13.54L187.13,235A15.75,15.75,0,0,1,174.74,241H82.09A15.74,15.74,0,0,1,69.7,235L11.89,163.18a16.54,16.54,0,0,1-3.14-13.54L29.4,60A15.73,15.73,0,0,1,38,49.22l83.57-40a19.8,19.8,0,0,1,6.94-1.32Zm0-7.76h0a24.91,24.91,0,0,0-10.24,2.31l-83.58,40a23.39,23.39,0,0,0-12.88,16L1.16,148.15A23.41,23.41,0,0,0,5.78,168.3l57.81,71.84a23.32,23.32,0,0,0,18.33,8.76h92.66a23.32,23.32,0,0,0,18.33-8.76l57.8-71.84a23.29,23.29,0,0,0,4.63-20.15L234.69,58.47a23.36,23.36,0,0,0-12.88-16l-83.24-40A23.63,23.63,0,0,0,128.5.17Z" transform="translate(-0.53 -0.17)"/><path class="cls-2" d="M212.23,142.53h-.16c-.17,0-.33,0-.33-.16-.33,0-.66-.17-1-.17a23.49,23.49,0,0,0-3.14-.33,6.36,6.36,0,0,1-1.65-.16h-.17a43.24,43.24,0,0,1-8.92-1.49,3.2,3.2,0,0,1-1.81-1.81c0-.17-.17-.17-.17-.34h0l-2.15-.66a65.47,65.47,0,0,0-1.15-23.28,68.21,68.21,0,0,0-9.25-21.64L184,91v-.33a3.67,3.67,0,0,1,.83-2.47,47,47,0,0,1,7.43-5.12h0c.49-.33,1-.5,1.48-.83a24.77,24.77,0,0,0,2.81-1.65c.17-.17.5-.33.83-.66.16-.17.33-.17.33-.33h0a5.51,5.51,0,0,0,1.15-7.43,4.67,4.67,0,0,0-3.79-1.82,6.12,6.12,0,0,0-3.64,1.32h0l-.33.33c-.33.17-.49.5-.82.66A28.22,28.22,0,0,0,188.12,75,7.46,7.46,0,0,1,187,76.14h0a42.28,42.28,0,0,1-6.6,6,2.67,2.67,0,0,1-1.49.49,2.15,2.15,0,0,1-1-.16h-.33l-2,1.32a78.07,78.07,0,0,0-6.78-6.28,66,66,0,0,0-34.51-13.71l-.17-2.14-.33-.34a3.43,3.43,0,0,1-1.32-2.14,57.35,57.35,0,0,1,.49-8.92V50a5.78,5.78,0,0,1,.34-1.65c.16-1,.33-2,.49-3.14V43.77h0A5,5,0,0,0,125,40a5.23,5.23,0,0,0-1.49,3.8h0v1.32a9.62,9.62,0,0,0,.5,3.14c.16.49.16,1,.33,1.65V50c.33,3.31.82,6.28.49,8.92a3.42,3.42,0,0,1-1.32,2.15l-.33.33h0l-.16,2.15a82.71,82.71,0,0,0-8.92,1.32,63.72,63.72,0,0,0-32.71,18.5l-1.65-1.16h-.33c-.33,0-.66.17-1,.17a2.65,2.65,0,0,1-1.48-.5,43.6,43.6,0,0,1-6.61-6.11h0a7.46,7.46,0,0,0-1.16-1.16,29.89,29.89,0,0,0-2.14-2.31c-.17-.16-.5-.33-.83-.66-.17-.17-.33-.17-.33-.33h0A5.74,5.74,0,0,0,62.27,70a4.68,4.68,0,0,0-3.8,1.82,5.52,5.52,0,0,0,1.15,7.43h0c.17,0,.17.16.33.16.33.17.5.5.83.66a24.16,24.16,0,0,0,2.81,1.65,6.9,6.9,0,0,1,1.48.83h0a48.33,48.33,0,0,1,7.44,5.12,3.05,3.05,0,0,1,.82,2.48v.33h0L75,92a5.64,5.64,0,0,0-.82,1.33,64.28,64.28,0,0,0-9.25,43.6l-2.15.66c0,.16-.16.16-.16.33a3.88,3.88,0,0,1-1.82,1.82,42.11,42.11,0,0,1-8.92,1.48H51.7a5.52,5.52,0,0,0-1.66.17,21.67,21.67,0,0,0-3.13.33c-.33,0-.66.16-1,.16a.59.59,0,0,0-.49.17h0a5.41,5.41,0,0,0-4.29,6.11c.49,2.31,2.64,3.8,5.28,3.8a3.51,3.51,0,0,0,1.32-.17h0c.17,0,.33,0,.33-.16.33,0,.66-.17,1-.17a16.47,16.47,0,0,0,3-1.15c.49-.17,1-.5,1.48-.66h.17a40.27,40.27,0,0,1,8.59-2.48h.33a3.64,3.64,0,0,1,2.14.82c.17,0,.17.17.33.17h0l2.32-.33A65.34,65.34,0,0,0,89,178.87a67.42,67.42,0,0,0,7.1,4.79l-1,2.15c0,.16.17.16.17.33a3.38,3.38,0,0,1,.33,2.64,46.3,46.3,0,0,1-4.3,7.76v.17c-.33.49-.66.82-1,1.32-.66.82-1.15,1.65-1.81,2.64a3.76,3.76,0,0,0-.5.83.6.6,0,0,1-.16.33h0a5.22,5.22,0,0,0,2.14,7.1,4.39,4.39,0,0,0,2,.49,5.94,5.94,0,0,0,5-3.13h0a.56.56,0,0,1,.16-.33,4.19,4.19,0,0,1,.5-.83,30.33,30.33,0,0,0,1-3l.5-1.49h0c1.15-3.3,2-5.94,3.47-8.26a4.21,4.21,0,0,1,2.14-1.48c.17,0,.17,0,.33-.17h0l1.16-2.15a64.47,64.47,0,0,0,23.12,4.3,60.24,60.24,0,0,0,14.37-1.65,73.79,73.79,0,0,0,8.59-2.48l1,1.82c.16,0,.16,0,.33.16a3.08,3.08,0,0,1,2.15,1.49,56.94,56.94,0,0,1,3.47,8.26v.16l.49,1.49a21.55,21.55,0,0,0,1,3c.17.33.33.5.5.83a.6.6,0,0,0,.16.33h0a5.61,5.61,0,0,0,5,3.13,4.39,4.39,0,0,0,2-.49,4.91,4.91,0,0,0,2.48-3,6,6,0,0,0-.33-4.13h0c0-.17-.17-.17-.17-.33a3.78,3.78,0,0,0-.49-.83A15.06,15.06,0,0,0,168,198c-.33-.5-.66-.83-1-1.32v-.17a37.14,37.14,0,0,1-4.3-7.76,4.54,4.54,0,0,1,.17-2.64c0-.17.16-.17.16-.33h0l-.82-2a65.51,65.51,0,0,0,28.74-36.17l2,.33c.16,0,.16-.16.33-.16a4.18,4.18,0,0,1,2.15-.83h.33a40.19,40.19,0,0,1,8.58,2.48h.17c.5.17,1,.5,1.49.66a15.42,15.42,0,0,0,3,1.16c.33,0,.66.16,1,.16a.6.6,0,0,1,.5.17h0a3.71,3.71,0,0,0,1.32.16A5.56,5.56,0,0,0,217,148c0-2-1.81-4.62-4.79-5.45Zm-76.47-8.09-7.26,3.47-7.27-3.47-1.82-7.76,5-6.28h8.09l4.95,6.28-1.65,7.76Zm43.11-17.18A52.34,52.34,0,0,1,180,134l-25.27-7.27a4.47,4.47,0,0,1-3.14-5.29,3.81,3.81,0,0,1,1-1.81l20-18a52.89,52.89,0,0,1,6.28,15.69Zm-14.2-25.6L143,107a4.39,4.39,0,0,1-5.78-1,3.63,3.63,0,0,1-.83-1.81L134.94,77.3a50.18,50.18,0,0,1,29.73,14.36Zm-47.9-13.54c1.82-.33,3.47-.66,5.28-1l-1.48,26.43a4.52,4.52,0,0,1-4.46,4.29,3.81,3.81,0,0,1-2-.5l-22-15.69a50.38,50.38,0,0,1,24.61-13.54ZM84.23,101.57l19.66,17.51a4.4,4.4,0,0,1,.49,6.11,3.24,3.24,0,0,1-2,1.32L76.8,134a53.23,53.23,0,0,1,7.43-32.38Zm-4.46,44.76L106,141.87a4.46,4.46,0,0,1,4.63,3.47,4.75,4.75,0,0,1-.17,2.64h0l-10.07,24.28a52.07,52.07,0,0,1-20.65-25.93Zm60.29,32.87a53.7,53.7,0,0,1-11.56,1.32,56,56,0,0,1-16.69-2.64l13-23.62a4.34,4.34,0,0,1,5.29-1.16,7.26,7.26,0,0,1,2,1.82h0l12.72,23c-1.49.49-3.14.82-4.79,1.32Zm32.2-23a52.45,52.45,0,0,1-15.85,16L146,147.32a4.45,4.45,0,0,1,2.31-5.12,5.33,5.33,0,0,1,2.32-.49l26.42,4.46a33.18,33.18,0,0,1-4.79,10.07Z" transform="translate(-0.53 -0.17)"/></svg>