<svg id="레이어_1" data-name="레이어 1" xmlns="http://www.w3.org/2000/svg" viewBox="0 0 240 234"><defs><style>.cls-1{fill:#001e36;}.cls-2{fill:#31a8ff;}</style></defs><path class="cls-1" d="M202.5,83h155A42.46,42.46,0,0,1,400,125.5v149A42.46,42.46,0,0,1,357.5,317h-155A42.46,42.46,0,0,1,160,274.5v-149A42.46,42.46,0,0,1,202.5,83Z" transform="translate(-160 -83)"/><path class="cls-2" d="M286,248.4H222.6c-1.1,0-1.6-.6-1.6-1.8V144.4a1.24,1.24,0,0,1,1.1-1.4h20a.94.94,0,0,1,1.1.8v84.3h46.2c1,0,1.3.5,1.1,1.4l-2.9,17.4a1.74,1.74,0,0,1-.6,1.2,1.69,1.69,0,0,1-1,.3Z" transform="translate(-160 -83)"/><path class="cls-2" d="M302,168.4h17.5a2.25,2.25,0,0,1,2.1,1.6,6.31,6.31,0,0,1,.8,2.3c.2,1,.4,2.1.5,3.1s.2,2.3.2,3.6a37.22,37.22,0,0,1,10.7-8.6,29.85,29.85,0,0,1,14.9-3.6,1.24,1.24,0,0,1,1.4,1.1v19.9c0,.8-.5,1.1-1.6,1.1a40.76,40.76,0,0,0-18.9,3.4,16.77,16.77,0,0,0-5.4,3.7v51c0,1-.4,1.4-1.3,1.4H303.4a1.38,1.38,0,0,1-1.6-1.2V191.4c0-2.4,0-4.9-.1-7.5s-.1-5.2-.2-7.8q-.15-3.3-.6-6.6a.92.92,0,0,1,.7-1.1c.1-.1.2-.1.4,0Z" transform="translate(-160 -83)"/></svg>