<svg id="layer_1" data-name="layer 1" xmlns="http://www.w3.org/2000/svg" viewBox="0 0 255.81 251.1"><defs><style>.cls-1{fill:#00546b;}</style></defs><path class="cls-1" d="M235.65,194.21c-13.92-.35-24.71,1-33.75,4.87-2.61,1-6.79,1-7.14,4.35,1.39,1.4,1.57,3.66,2.79,5.57,2.09,3.48,5.74,8.18,9,10.61,3.66,2.79,7.31,5.57,11.14,8,6.78,4.17,14.44,6.61,21.05,10.78,3.83,2.44,7.65,5.57,11.48,8.18,1.92,1.39,3.13,3.65,5.57,4.52v-.52c-1.22-1.56-1.57-3.83-2.78-5.56-1.74-1.74-3.48-3.31-5.22-5.05a82.39,82.39,0,0,0-18.1-17.57c-5.56-3.83-17.74-9.05-20-15.49l-.34-.34c3.82-.35,8.35-1.74,12-2.79,5.92-1.56,11.31-1.22,17.4-2.78,2.78-.7,5.57-1.57,8.35-2.44V197c-3.13-3.14-5.39-7.31-8.7-10.27a232.44,232.44,0,0,0-28.71-21.4c-5.39-3.48-12.35-5.74-18.09-8.7-2.09-1-5.57-1.56-6.78-3.3-3.14-3.83-4.88-8.88-7.14-13.4-5-9.57-9.92-20.18-14.26-30.27-3.13-6.79-5-13.57-8.88-19.84-17.92-29.57-37.4-47.49-67.33-65.06C80.8,21.1,73.15,19.54,65,17.62c-4.35-.17-8.7-.52-13-.69-2.78-1.22-5.56-4.53-8-6.09C34,4.57,8.43-9,1.12,8.92c-4.7,11.31,7,22.45,11,28.19,3,4,6.79,8.52,8.88,13,1.21,3,1.56,6.09,2.78,9.22,2.78,7.65,5.39,16.18,9.05,23.31a84.84,84.84,0,0,0,6.43,10.79c1.4,1.91,3.83,2.78,4.35,5.91-2.43,3.48-2.61,8.7-4,13-6.26,19.66-3.83,44,5,58.46,2.78,4.35,9.39,13.92,18.27,10.26,7.82-3.13,6.08-13,8.35-21.74.52-2.09.17-3.48,1.21-4.87v.34c2.44,4.87,4.88,9.57,7.14,14.44,5.39,8.53,14.79,17.4,22.61,23.32,4.18,3.13,7.49,8.52,12.71,10.44v-.53h-.35c-1-1.56-2.61-2.26-4-3.48a83.87,83.87,0,0,1-9-10.43A223.53,223.53,0,0,1,82,157c-2.78-5.39-5.22-11.31-7.48-16.7-1-2.09-1-5.22-2.78-6.26-2.61,3.82-6.44,7.13-8.35,11.83-3.31,7.48-3.66,16.7-4.87,26.27-.7.17-.35,0-.7.35-5.57-1.4-7.48-7.14-9.57-12-5.22-12.35-6.09-32.19-1.56-46.45,1.21-3.66,6.43-15.14,4.34-18.62-1-3.3-4.52-5.22-6.43-7.83a70.52,70.52,0,0,1-6.27-11.13c-4.17-9.74-6.26-20.53-10.78-30.28-2.09-4.52-5.74-9.22-8.7-13.39-3.31-4.7-7-8-9.57-13.57-.87-1.92-2.09-5.05-.7-7.13A2.78,2.78,0,0,1,11,9.79c2.26-1.91,8.7.53,11,1.57,6.44,2.61,11.83,5,17.22,8.7,2.44,1.74,5.05,5,8.18,5.91h3.65c5.57,1.22,11.83.35,17,1.92a110.63,110.63,0,0,1,25.06,12,154.35,154.35,0,0,1,54.28,59.5c2.09,4,3,7.66,4.87,11.83,3.66,8.53,8.18,17.23,11.83,25.58,3.65,8.18,7.13,16.53,12.35,23.31,2.61,3.66,13,5.57,17.75,7.48,3.48,1.57,8.87,3,12,4.88,5.91,3.65,11.83,7.82,17.39,11.83,2.79,2.08,11.49,6.43,12,9.91Z" transform="translate(-0.02 0)"/><path class="cls-1" d="M58.19,43a27.68,27.68,0,0,0-7.14.87v.35h.35c1.39,2.78,3.83,4.7,5.57,7.13,1.39,2.79,2.61,5.57,4,8.36l.35-.35c2.44-1.74,3.65-4.53,3.65-8.7-1-1.22-1.22-2.44-2.09-3.66-1-1.74-3.3-2.61-4.69-4Z" transform="translate(-0.02 0)"/></svg>