<svg id="레이어_1" data-name="레이어 1" xmlns="http://www.w3.org/2000/svg" viewBox="0 0 2418.19 2493.11"><defs><style>.cls-1{fill:#336791;}.cls-2{fill:#fff;}</style></defs><path d="M2414.61,1496.88c-14.54-44-52.61-74.68-101.85-82-23.22-3.47-49.8-2-81.27,4.5-54.84,11.31-95.53,15.62-125.22,16.45,112.08-189.23,203.21-405,255.68-608.15,84.84-328.47,39.5-478.1-13.47-545.78C2208.27,102.71,2003.72,6.47,1757,3.52,1625.3,1.91,1509.74,27.9,1449.45,46.6c-56.13-9.91-116.49-15.44-179.81-16.46-118.71-1.89-223.6,24-313.22,77.17C906.8,90.53,827.17,66.88,735.21,51.78,518.93,16.28,344.61,43.94,217.1,134,62.7,243.08-8.87,432.57,4.37,697.22c4.2,84,51.2,339.68,125.21,582.14,42.53,139.36,87.89,255.09,134.81,344,66.53,126.08,137.73,200.32,217.65,227,44.8,14.92,126.19,25.37,211.8-45.93,10.85,13.14,25.33,26.2,44.54,38.33,24.4,15.39,54.24,28,84,35.41,107.38,26.85,208,20.14,293.78-17.49.53,15.26.94,29.84,1.28,42.44.57,20.42,1.14,40.45,1.89,59.17,5.08,126.64,13.7,225.11,39.23,294,1.4,3.79,3.28,9.56,5.27,15.69,12.74,39,34,104.27,88.21,155.39,56.1,53,124,69.2,186.12,69.2a418.08,418.08,0,0,0,87-9.68c93-19.93,198.59-50.29,275-159.06,72.23-102.83,107.34-257.71,113.69-501.75.83-6.91,1.58-13.5,2.31-19.77l1.52-12.9,17,1.5,4.39.29c94.7,4.32,210.51-15.77,281.62-48.8,56.2-26.08,236.29-121.15,193.89-249.51" transform="translate(-2.81 -3.45)"/><path class="cls-1" d="M2252.67,1521.84c-281.6,58.09-301-37.25-301-37.25C2249,1043.41,2373.32,483.4,2266.07,346.34c-292.62-373.88-799.15-197.06-807.61-192.47l-2.72.49c-55.63-11.55-117.89-18.43-187.87-19.57-127.42-2.09-224.07,33.4-297.42,89,0,0-903.6-372.25-861.57,468.18,8.94,178.78,256.26,1352.82,551.25,998.21,107.82-129.67,212-239.31,212-239.31,51.74,34.37,113.68,51.9,178.62,45.61l5-4.28c-1.57,16.09-.85,31.84,2,50.49-76,84.9-53.66,99.81-205.58,131.08-153.72,31.68-63.42,88.08-4.46,102.83,71.48,17.87,236.85,43.19,348.58-113.23l-4.45,17.85c29.77,23.85,50.67,155.13,47.17,274.14s-5.84,200.71,17.61,264.53,46.85,207.41,246.57,164.62c166.87-35.76,253.34-128.43,265.38-283,8.53-109.89,27.86-93.64,29.07-191.9l15.5-46.51c17.87-149,2.84-197,105.64-174.68l25,2.2c75.65,3.43,174.7-12.18,232.83-39.19,125.15-58.09,199.39-155.07,76-129.59h0" transform="translate(-2.81 -3.45)"/><path class="cls-2" d="M1023.34,771.94c-25.37-3.53-48.35-.27-60,8.54-6.53,4.95-8.56,10.69-9.11,14.64-1.46,10.46,5.87,22,10.38,28,12.74,16.89,31.36,28.5,49.79,31.06a58,58,0,0,0,8,.55c30.72,0,58.67-23.93,61.13-41.59,3.08-22.12-29-36.86-60.18-41.19m840.68.69c-2.43-17.34-33.27-22.28-62.55-18.21s-57.59,17.27-55.22,34.65c1.89,13.51,26.29,36.58,55.17,36.58a51.41,51.41,0,0,0,7.39-.52c19.27-2.67,33.42-14.91,40.14-22,10.23-10.76,16.16-22.75,15.07-30.54" transform="translate(-2.81 -3.45)"/><path class="cls-2" d="M2346.38,1515.24c-10.74-32.47-45.3-42.92-102.72-31.06-170.49,35.19-231.54,10.81-251.59-4,132.52-201.87,241.53-445.9,300.34-673.58,27.86-107.85,43.25-208,44.51-289.65,1.39-89.6-13.88-155.45-45.35-195.67C2164.67,159.18,1978.42,72.2,1753,69.81c-155-1.74-286,37.93-311.33,49.08a776.3,776.3,0,0,0-175.19-22.5c-116.36-1.88-216.93,26-300.2,82.76-36.17-13.47-129.65-45.56-244-64-197.64-31.82-354.68-7.71-466.76,71.69C121.81,281.61,60.07,451,72,690.22c4,80.5,49.89,328.13,122.27,565.27,95.27,312.13,198.84,488.82,307.81,525.17a137.6,137.6,0,0,0,43.68,7.23c39.75,0,88.48-17.92,139.19-78.88q92.76-111.29,191.85-217.08a309.09,309.09,0,0,0,138,37.12c.1,1.26.22,2.52.33,3.77q-12.42,14.82-24.33,30.06c-33.35,42.34-40.29,51.15-147.64,73.25-30.54,6.31-111.64,23-112.83,79.87-1.29,62.12,95.87,88.2,106.94,91,38.58,9.66,75.74,14.42,111.18,14.42,86.2,0,162-28.33,222.67-83.15-1.86,221.44,7.37,439.64,34,506.12,21.77,54.43,75,187.43,243,187.42,24.66,0,51.8-2.87,81.65-9.27,175.37-37.59,251.53-115.1,281-286,15.76-91.33,42.81-309.4,55.54-426.38,26.85,8.38,61.42,12.22,98.8,12.21,77.94,0,167.89-16.56,224.29-42.75,63.37-29.42,177.71-101.63,157-164.37ZM1928.75,724.79c-.58,34.53-5.33,65.88-10.37,98.6-5.43,35.2-11,71.59-12.44,115.76-1.4,43,4,87.68,9.16,130.9,10.49,87.31,21.26,177.18-20.41,265.87a348,348,0,0,1-18.47-38c-5.18-12.56-16.42-32.73-32-60.64-60.59-108.66-202.48-363.13-129.85-467,21.64-30.91,76.55-62.68,214.38-45.57Zm-167.07-585c202,4.46,361.8,80,474.93,224.6,86.78,110.89-8.77,615.45-285.38,1050.74q-4.18-5.31-8.39-10.58l-3.51-4.38c71.48-118,57.51-234.84,45.06-338.39-5.11-42.49-9.94-82.63-8.71-120.34,1.27-40,6.56-74.23,11.67-107.37,6.28-40.84,12.67-83.1,10.91-132.92a55.28,55.28,0,0,0,1.15-18.73c-4.5-47.77-59-190.73-170.2-320.13-60.81-70.78-149.48-150-270.56-203.41,52.08-10.8,123.29-20.86,203-19.09ZM631.32,1664.4c-55.87,67.17-94.44,54.29-107.13,50.07C441.53,1686.9,345.61,1512.18,261,1235.12,187.87,995.39,145.11,754.33,141.72,686.73,131,472.94,182.86,324,295.76,243.89c183.73-130.29,485.8-52.31,607.18-12.76-1.74,1.73-3.56,3.34-5.28,5.09-199.19,201.15-194.46,544.83-194,565.84,0,8.11.66,19.58,1.59,35.37,3.43,57.8,9.81,165.39-7.23,287.22-15.84,113.22,19.07,224,95.73,304q11.81,12.3,24.78,23.37c-34.12,36.55-108.29,117.38-187.24,212.35Zm212.85-284c-61.8-64.48-89.86-154.17-77-246.09,18-128.7,11.35-240.79,7.78-301-.5-8.43-1-15.82-1.2-21.64,29.1-25.8,163.94-98,260.11-76,43.87,10,70.61,39.93,81.73,91.32,57.53,266.1,7.61,377-32.5,466.14-8.26,18.36-16.07,35.72-22.74,53.67l-5.17,13.88c-13.09,35.09-25.26,67.72-32.81,98.7-65.69-.19-129.6-28.25-178.19-79Zm10.08,358.87c-19.18-4.79-36.43-13.12-46.56-20,8.46-4,23.51-9.39,49.6-14.77,126.29-26,145.79-44.34,188.38-98.42,9.76-12.4,20.83-26.45,36.16-43.57l0,0c22.83-25.57,33.28-21.23,52.21-13.37,15.35,6.34,30.3,25.58,36.36,46.75,2.87,10,6.09,29-4.45,43.75C1077,1764.17,947.36,1762.57,854.25,1739.27Zm660.91,615c-154.49,33.1-209.19-45.72-245.24-135.84-23.26-58.17-34.7-320.51-26.59-610.23a34.8,34.8,0,0,0-1.5-11.08,145.76,145.76,0,0,0-4.32-20.47c-12.06-42.15-41.46-77.42-76.74-92-14-5.8-39.73-16.45-70.63-8.55,6.59-27.15,18-57.82,30.41-91l5.2-14c5.85-15.74,13.2-32.06,21-49.33,42-93.25,99.46-221,37.07-509.51-23.37-108.08-101.41-160.86-219.71-148.59C893.15,671,828.26,699.59,795.9,716c-7,3.52-13.33,6.93-19.27,10.24,9-108.89,43.16-312.39,170.81-441.15,80.38-81,187.43-121.08,317.85-118.92,257,4.2,421.78,136.08,514.78,246,80.14,94.69,123.54,190.09,140.86,241.54-130.25-13.24-218.83,12.46-263.73,76.66C1559.51,870,1710.64,1141,1783.28,1271.3c13.32,23.87,24.82,44.51,28.43,53.27,23.66,57.33,54.28,95.6,76.63,123.53,6.86,8.56,13.51,16.87,18.56,24.12-39.44,11.37-110.3,37.65-103.84,169-5.21,65.9-42.24,374.45-61.06,483.46-24.83,144-77.83,197.66-226.84,229.62Zm644.86-738c-40.34,18.72-107.84,32.77-172,35.79-70.83,3.31-106.88-7.94-115.37-14.86-4-81.85,26.49-90.4,58.73-99.45,5.06-1.42,10-2.81,14.78-4.48a118.94,118.94,0,0,0,9.77,7.16c56.93,37.57,158.46,41.62,301.81,12l1.57-.31c-19.34,18.08-52.42,42.34-99.33,64.12Z" transform="translate(-2.81 -3.45)"/></svg>