<svg id="layer_1" data-name="layer 1" xmlns="http://www.w3.org/2000/svg" viewBox="0 0 256 231.66"><defs><style>.cls-1{fill:#fdb300;}.cls-2{fill:#eb6c00;}.cls-3{fill:#fdad00;}.cls-4{fill:#fdd231;}.cls-5{fill:#feeeb7;}</style></defs><polygon class="cls-1" points="128 0 55.85 7.63 0 82.61 128 231.66 256 82.61 200.15 7.63 128 0"/><polygon class="cls-2" points="0 82.61 128 231.66 51.85 82.61 0 82.61"/><polygon class="cls-2" points="204.15 82.61 128 231.66 256 82.61 204.15 82.61"/><polygon class="cls-3" points="51.85 82.61 128 231.66 204.15 82.61 51.85 82.61"/><polygon class="cls-4" points="55.85 7.63 51.85 82.61 128 0 55.85 7.63"/><polygon class="cls-4" points="204.15 82.61 200.15 7.63 128 0 204.15 82.61"/><polygon class="cls-3" points="204.15 82.61 256 82.61 200.15 7.63 204.15 82.61"/><polygon class="cls-3" points="0 82.61 51.85 82.61 55.85 7.63 0 82.61"/><polygon class="cls-5" points="128 0 51.85 82.61 204.15 82.61 128 0"/></svg>