<svg id="layer_1" data-name="layer 1" xmlns="http://www.w3.org/2000/svg" viewBox="0 0 255.37 255.36"><defs><style>.cls-1{fill:#dd4814;}.cls-2{fill:#fff;}</style></defs><path class="cls-1" d="M255.64,127.68A127.69,127.69,0,1,1,128,0,127.68,127.68,0,0,1,255.64,127.68Z" transform="translate(-0.27)"/><path class="cls-2" d="M41.13,110.63a17,17,0,1,0,17,17.05,17,17,0,0,0-17-17.05Zm121.72,77.48a17,17,0,1,0,23.28,6.24,17,17,0,0,0-23.28-6.24ZM78.16,127.68A49.74,49.74,0,0,1,99.33,86.94L86.87,66.07a74.21,74.21,0,0,0-30.62,43,24,24,0,0,1,0,37.14A74.15,74.15,0,0,0,86.87,189.3l12.46-20.88a49.72,49.72,0,0,1-21.17-40.74ZM128,77.89a49.79,49.79,0,0,1,49.6,45.38l24.29-.36a73.85,73.85,0,0,0-22-48,23.94,23.94,0,0,1-32.1-18.56,74.14,74.14,0,0,0-52.61,5L107,82.52a49.51,49.51,0,0,1,21-4.63Zm0,99.59a49.52,49.52,0,0,1-21-4.64L95.14,194.07a74,74,0,0,0,52.6,5,23.93,23.93,0,0,1,32.1-18.55,73.85,73.85,0,0,0,22-48l-24.3-.35A49.78,49.78,0,0,1,128,177.48ZM162.84,67.24A17,17,0,1,0,156.6,44a17,17,0,0,0,6.24,23.27Z" transform="translate(-0.27)"/></svg>