<svg id="Express" xmlns="http://www.w3.org/2000/svg" viewBox="0 0 105.34 23.51"><g id="original-wordmark"><path id="path4" d="M40,41.75v-23h1.25v3.62a4,4,0,0,0,.41-.51,6.19,6.19,0,0,1,5.65-3.5,6.64,6.64,0,0,1,6.53,3.5,11.25,11.25,0,0,1,.27,10.33c-1.27,2.85-4.4,4.26-7.75,3.74a6.27,6.27,0,0,1-5-3.3v9.16Zm1.25-14.89c.11,1.12.16,1.92.28,2.71.5,3.08,2.32,4.91,5.18,5.24a5.89,5.89,0,0,0,6.46-3.74A10,10,0,0,0,53,22.84a5.77,5.77,0,0,0-6.07-3.36,5.59,5.59,0,0,0-5,4.15A27.07,27.07,0,0,0,41.26,26.86Z" transform="translate(-7.33 -18.25)"/><path id="path6" d="M80.76,30a6.74,6.74,0,0,1-6.59,6c-5.24.26-7.7-3.22-8.09-7.23a11.61,11.61,0,0,1,1-6.39,7.13,7.13,0,0,1,7.41-4,6.8,6.8,0,0,1,6,5.18,33.11,33.11,0,0,1,.59,3.83H67.36c-.25,3.64,1.71,6.57,4.48,7.28,3.45.85,6.41-.65,7.48-3.93C79.56,29.87,80,29.75,80.76,30Zm-13.4-3.78H79.68c-.08-3.89-2.5-6.69-5.77-6.74C70.2,19.41,67.52,22.12,67.36,26.21Z" transform="translate(-7.33 -18.25)"/><path id="path8" d="M83.29,30.08H84.5a4.85,4.85,0,0,0,2.84,4.17,7.47,7.47,0,0,0,6.46-.17,2.92,2.92,0,0,0,1.7-2.85,2.63,2.63,0,0,0-1.77-2.63c-1.33-.5-2.74-.77-4.1-1.2a30.2,30.2,0,0,1-4.11-1.51c-2.18-1.06-2.32-5.21.15-6.52a8.67,8.67,0,0,1,8.3-.13,4.38,4.38,0,0,1,2.22,4.46h-1c0-.05-.09-.09-.09-.14-.13-3.31-2.91-4.33-5.89-4a7.92,7.92,0,0,0-2.55.77,2.72,2.72,0,0,0,.22,4.95c1.31.48,2.68.79,4,1.16,1.08.3,2.2.49,3.25.85a3.86,3.86,0,0,1,2.64,3.47A4.08,4.08,0,0,1,94.55,35c-2.84,1.61-7.52,1.18-9.6-.85A5.67,5.67,0,0,1,83.29,30.08Z" transform="translate(-7.33 -18.25)"/><path id="path10" d="M112.08,23.7h-1.14a3.86,3.86,0,0,0-.07-.41,3.71,3.71,0,0,0-3-3.56,7.43,7.43,0,0,0-4.77.23,2.89,2.89,0,0,0-2.1,2.76,2.66,2.66,0,0,0,2,2.69c1.7.53,3.45.85,5.17,1.33a15.86,15.86,0,0,1,1.66.5,4.26,4.26,0,0,1,.23,7.93,9.46,9.46,0,0,1-7.66.07,5.3,5.3,0,0,1-3.2-5.15h1.1a6.21,6.21,0,0,0,7.34,4.81,6.09,6.09,0,0,0,2.11-.87,3,3,0,0,0,1.63-2.84,2.62,2.62,0,0,0-1.79-2.61c-1.33-.49-2.74-.76-4.1-1.19a30.5,30.5,0,0,1-4.14-1.49c-2.13-1-2.3-5.16.13-6.47a8.55,8.55,0,0,1,8.44-.09A4.46,4.46,0,0,1,112.08,23.7Z" transform="translate(-7.33 -18.25)"/><path id="path12" d="M37.94,35.53a1.93,1.93,0,0,1-2.41-.92c-1.39-2.07-2.92-4.06-4.39-6.08l-.64-.85C28.74,30,27,32.28,25.39,34.62a1.86,1.86,0,0,1-2.3.9l6.58-8.82-6.12-8a2,2,0,0,1,2.43.86c1.42,2.07,3,4.06,4.56,6.16,1.57-2.09,3.13-4.08,4.59-6.14a1.82,1.82,0,0,1,2.28-.85L35,21.9c-1.06,1.4-2.11,2.82-3.21,4.19a.85.85,0,0,0-.07,1.2l.07.06C33.85,30.05,35.87,32.76,37.94,35.53Z" transform="translate(-7.33 -18.25)"/><path id="path14" d="M65.87,18.64v1.19a6.17,6.17,0,0,0-6.56,5.75c0,.21,0,.42,0,.63v9.36H58.09V18.71h1.19v3.45C60.75,19.64,63,18.71,65.87,18.64Z" transform="translate(-7.33 -18.25)"/><path id="path16" d="M7.33,26.59c.18-.85.29-1.78.54-2.65,1.47-5.23,7.47-7.41,11.6-4.17,2.41,1.9,3,4.59,2.9,7.62H8.75c-.22,5.41,3.69,8.68,8.68,7a5.19,5.19,0,0,0,3.3-3.67c.26-.85.69-1,1.5-.75A6.92,6.92,0,0,1,18.92,35,8,8,0,0,1,9.6,33.84a8.42,8.42,0,0,1-2.09-4.92,4,4,0,0,0-.17-.85C7.34,27.56,7.33,27.07,7.33,26.59Zm1.44-.37H21.08c-.07-3.92-2.55-6.7-5.85-6.73-3.68,0-6.31,2.67-6.47,6.72Z" transform="translate(-7.33 -18.25)"/></g></svg>