<svg id="layer_1" data-name="layer 1" xmlns="http://www.w3.org/2000/svg" viewBox="0 0 256 328.83"><path d="M76.5,203.35c-9.75-7.67-20.15-15-27.26-25.38a205.81,205.81,0,0,1-34.35-61.62C10.13,101.9,8.5,86.41,2.36,72.52-4,62.43,3.47,51.4,14.52,48.2c4.91-1,13.57-5.59,3.12-2.27C8.28,52.8,7.38,39.69,17,38.86c6.55-.87,9-6.23,6.72-11.06-7-4.59,17.05-9.62,4.93-16.47C16-2.29,46.29-4.91,38.82,10.56,37,22.46,60,8.38,54.65,22.11c5.42,6.6,20.28,1.51,19.9,10.76,7.89.54,10.6,7.17,18,7.69,7.68,3.46,21.58,6.19,24.19,14.83-7.61,6-25.23-12.44-26.08,4.23,2.3,24.64,1.72,50,10.73,73.48,4.26,14.21,14.6,25.39,23.93,36.45,8.93,10.84,21,18.47,33.36,24.89a137.91,137.91,0,0,0,34.27,10.61c4.78-3.66,13.22-17.26,20.67-11.53.36,6.45-14.8,13.47-.71,12.76,8.28-2.5,14,6.4,20.83-1.63,6.27,7.44,26.09-4.75,21.62,10.45-6,3.9-14.85,1.54-20.9,6.91-10-5-17.91,4.45-28.95,3.26a212.49,212.49,0,0,1-37.17,3.1c-20.4-1.61-41.22-2.29-60.62-9.39-10.94-3.18-21.6-9.4-31.21-15.63Zm17.22,7.47c10.68,4.61,21.11,9.47,32.81,11,18.56,2.57,37.73,6.55,56.35,2.92-8.43-3.8-17.15,1.48-25.54-2.72-10.07,2.17-20.88-.55-31.12-1.89-11.64-5.19-24.21-8.75-35.11-15.49-13.63-5,7,6.39,10.72,7.31,8.52,4.83-9.36-2.48-11.89-4.49-7.13-4-8-3.16-.7.9,1.48.86,2.94,1.77,4.48,2.51ZM73.41,196.47c10.35,3.83,0-7.28-4.78-6.63-2.09-3.65-8-6-3.84-7.9-7.51,2.61-7.87-9.92-11.4-8.13-8-2.51-3.1-11.41-12.57-16.87-.87-5.76-9.41-10.75-12.13-19.42-1.21-4.45-9.66-17.21-4.47-5.33,4.42,11.43,12.2,21.22,18.67,31,5,9.31,11,19.05,20.11,24.85,3.09,3,6.06,7.5,10.41,8.43ZM43.62,163.75c.36-1.56,1.89,3.38,0,0Zm42.19,37.31c2.29-1-3.3-1.3,0,0Zm5.61,2c-.58-2.82-2.57,1.59,0,0Zm7,2.93c3.34-3.18-5.16-2,0,0Zm12,6.72c2-3-6.51-1.13,0,0ZM87.36,196.62c5.19-3.36-6.71,0,0,0Zm5.27,2.63c-.15-1.77-1.87.8,0,0ZM119,215.7c4.24,2.67,24.74,5.86,11.9,1.1-2.15.45-23.8-6.13-11.9-1.1ZM77.16,183.12c-.42-1.78-6.58-2,0,0Zm12.26,7.15c3.19-2.23-6.63-1.72,0,0Zm10.31,6.33c4.59-1.73-7.42-1.74,0,0ZM72.16,177.69c5,3.81,20,.49,7.61-2.28-5.66-3-18.41-5.08-9.72,1.82l2.11.46Zm34.57,21.09c2.07-3.52-8.69-2,0,0Zm-10.51-8.34c12.15,3.43-10.22-7.69-3-1.27l1.6.72,1.4.55Zm21.06,12.17c11.51.11-10.4-1.59,0,0ZM67.73,171c-.45-2.15-2.83.18,0,0Zm69,42.5c.3-3.87-3.76,2.88,0,0ZM87.38,183.05c-.7-2-3.6-.08,0,0ZM68.82,169.68c6.61-.4-9-2.91,0,0Zm-22-14.2c-.83-3.17-7.19-5.7,0,0Zm57.69,36.61c-1.21-1.38-.57.3,0,0Zm35.91,22c-.11-2.11-2,.8,0,0Zm-39.09-25.32c.65-2.72-5.63-.83,0,0Zm-26.75-17c4.92-.52-7.88-3.32,0,0ZM119.86,200c7.67-3-7.47-1.48,0,0ZM96.33,184c8.82,1.13-10.51-6-1.94-.64l1.94.64ZM127,202.86c8.24-4.92,5.52,11.54,14,1.39,8.34-6.09-7.21,7.54,3.07,1.09,7.44-5,18.43,2.36,25.36,4.75,5-.25,9.85,4.31,15,1.54,9.84-2.66-19.27-3.94-11.64-8.64-9,2.62-15.66-3.12-20.1-8.9-10.11-2.33-21.79-7.5-26.84-16.45-2.06-3.35,3,.48-1.78-5-6.09-5.42-9.13-11.57-13.22-18.16-4.88-2.6-5.46-10.27-5.95-.25,0-6.33-5.89-10.58-7.35-8.82,0-6.09,6.36-3,1.89-7.54-1-6.31-4.12-12.89-5.07-20-1.48-3.44-.21-10.79-5-3-1.76,8.22-.58-10.09,2.16-4.06,3.6-6.16-1.3-5.43-1.49-4.58,2.34-5.2,1.48-12.58-.62-9.77,1.25-5.51,2-20.28-1.86-17.66,2.33-5.76,4.42-26.38-5.7-18.52-4.09.06-11.18,1.49-14.53,3.16,10.51,5.79-1.06,2.09-5.34,1.17-.56,5.36-4.8,3-10.09,3.1,8.46,1-4.12,8.65-9,5.69-6.3,3,5.44,10.53.13,12.86.65,3.5-9.66-1.27-8.85,6.83-6.12-2.58-.84,9.59,2.22,5.47,10.41,2.82,7.33,9.24,7.59,15.34-1.7,3.55-8.37-8.35-1.49-7.8-5.43-8.82-6-3.19-10.52.91-1.05.29,11.51,5.83,3.63,8.56,6.93,1.07,7.13,7.14,8.55,11,4.16,4.34,3.31-4.79,8.3.43-3.16-4.65-16.72-13.1-5.8-10.39-.06-4.68-2-8.45,1.37-8.36,3.31-6-3.47,14.79,4,7.17,2.07-.91,2.59-6,6.3.48,5.39,5.31,1.95,9.15-5.66,4.29,1.36,4.62,10.18,6.27,8.52,13.5,1.76,6.35,4.22,4,6.36,3.64,1.68,6.18,2.64,1.64,2.72-1.3,7.69,1.65,5.89,6.2,8.3,9.37,5.3,2.4-7.59-16.22,1.51-5.59,9.58,8.65,3.6,12.26-5,10.87,5.44-.44,7.19,7.36,14,7.08,6.2,3,10.41,14.3-.29,9.58-3.71-3.35-16.85-7.48-6.11-1.12,9.9,4.59,17.77,7.33,27.32,13.1,6.84,4.87,9.79,10.46,12.38,11.57-5.75,2.75-17.31-2.19-8.72-3.7-5.36-1-11.39-3.69-6.26,3,4.37,3.65,15.46,3.26,17.46,3.67-1.69,3.72-4.58,4,.06,4.3-5.18,2.76,1.67,3.2,2.15,4.77Zm-10.61-30c-3.16-3.31-4-9.49-.56-4.11,1.75.7,5.6,10.1.56,4.11ZM151,194.85c2-.13.06,1.5,0,0Zm-39.53-30c-.12-5,1.14,3.85,0,0ZM108,160.19c-4-7.67,5,2.18,0,0ZM66.37,131.48c2.34-.63,1.15,4,0,0Zm33.12,17.94c1.43-5.38,1.68,4.52,0,0ZM76.1,133.15c-1.65-3,3.44,2.79,0,0Zm20.07,6.44c-3.76-8.42,2.67-4.6.84,1.38l-.84-1.38ZM61.55,116.5c-1.68-2.77-4.46-10.87-3.57-13.35.81,4,8.58,17.35,3.81,5.52-5.26-9.92,6.3,3.21,7.49,5.69.55,2.46-3.25-.67-.68,5.1-4.7-6.57-2.77,3.63-7-3Zm-10.7-7.38c.44-6.42,2.44,4.41,0,0Zm4.81,1.66c2.3-4.85,3.89,6.77,0,0Zm-11.58-9c-4-4-6.87-7.61.19-2.46,2.71.1-6-8.3.65-2.67,7,1.28,3.48,11.54-.84,5.13Zm6.08-.16c2.32-2.3,1.23,2.26,0,0Zm3.75,1.2c-3.51-6.58,4.26,2.76,0,0Zm-7.44-7.11C34.89,85.45,61,101.15,48.36,97.67l-1.89-1.91ZM79.65,115c-5-3-1.33-21.15.38-8.74,4.87-1.57-.27,6.42,3.36,6.34-.56,5-2.19,6.85-3.74,2.4Zm12.28,7.26c.49-5.47,1,3.74,0,0Zm-2.13-2.11c.55-2.33,0,2.75,0,0ZM48.74,92.37C41.3,82.1,70.36,102.75,53.5,95c-1.76-.46-3.88-.62-4.76-2.6ZM72.37,104.9c-.7-8.64,1.57,1.43,0,0Zm17.95,11.51c1.38-4.92.1,3.26,0,0Zm-40.44-28c4.42-.94,18.32,7.77,5.56,2.49C54,89.37,51,90.08,49.88,88.45Zm38,18.93c.47-8.84,2.65-5.28,0,1.27l0-1.27Zm-34.68-22c1.81-2.64-4.79-11.94.95-3.33,2.48,2,7.17,3.29,3,4.13,6.51,5.74-1.59,1.55-4-.8ZM86,104.62c1.24-10.07,1.1,5.9,0,0ZM49.4,76.08c1.38-.59.74,1.83,0,0ZM58,81.17c2.21-4.62,4.06,5.15,0,0ZM82.1,94.59c0-1.77.46,2.59,0,0ZM80.7,91.5c-3.35-8.26,3.12,4.38,0,0Zm-2-5.42c-.57-3.41,1.91,4.29,0,0ZM82,80.64c-2.3-4,2.91-17.85,3.49-9.29-2.43,6.67-.7,10.4,1,1.45,3.12-7-.68,13.9-4.48,7.84Zm3.44-20.53c1-1.23.23,1.49,0,0ZM79.69,173.32c-1.36-1.19.17.76,0,0Zm11.83,6c6.59,1.69,6.55-1,.6-1.83-3.19-3-13.3-6.14-4.25-.37.59,1.52,2.48,1.48,3.65,2.2ZM68.15,163.78c3.62,2.71,13.66,7.67,5.17,1,2.86-3.33-5.48-5.1-2.72-7.33-7-4.31-5.56-3.93-.62-3.79-8.46-3.79,1.22-3.5.77-5.44-3.27-.64-16.21-5.76-8.6.42-7.74-4-1.84,1.47-4.18.9-7.92-2.16,7,6-1.26,4,4.54,3.59,12.23,9.22,1.92,3.8-1.35,2,7.38,4.92,9.52,6.4Zm12.38,7.12c15,4.84-7.38-5.93,0,0Zm63.36,38.38c.2-3-2,2.55,0,0Zm6.52,2.74c3.47-3.36.14,5.36,5.75-.82.06-4.43-.17-7-6.45-1.66-1.73,1-2.5,5,.7,2.48ZM47,147.1c-1.06-4.19-7.47-4.18,0,0ZM54,151.65c-2.58-4.28-9.21-3.87,0,0Zm39.57,23.86c3.87,3.44,17.74,2.52,4.69.43-1.93-2.86-12.27-2.17-4.69-.43Zm54.39,33.6c5.94-5-5.76,2.22,0,0Zm12.36,8.49c0-1.6-2.56.7,0,0Zm0-2.24c6.59-7-6.37.41,0,0ZM29.92,132.78c-5.61-8-3.49-11.61-8.9-18.14-1-5-9.29-16.35-4.27-4.33,4.59,7,5.95,17.91,13.17,22.47Zm128.33,80.36c12.11-7.83-5-3.41,0,0Zm9.24,3.62c6.07-5.2-3.84-1.08,0,0ZM45,138.25c1.74-2.58-4.48-.34,0,0Zm120.6,76c5.88-3.78-1.35-3.2-1.06.35l1.06-.35ZM85.87,164.06c-.21-2.57-3.11.21,0,0Zm4.92,2.83c-1.57-3.17-2.41.5,0,0Zm84.2,50c7.52-5.43-4.56-1-1.58,1l1.58-1Zm-2.89-1.39c6.14-5.14-6.47,2.27,0,0Zm14.73,9.8c4.11-2.76-5-.89,0,0ZM48.74,136.38c5.51,1.24,22,13.59,12.29.86-5-1.48-2-13.68-7.09-11.53,3.42,5.72,2.81,8.14-4.37,4.55-9-4.41-5.07,2.18-3.3,4-2.41.55,3.17,2.09,2.47,2.13ZM23.61,116.54c1-4.09-9.1-22.47-4.76-9.21,1.56,2.77,1.4,8,4.76,9.21ZM69.73,145c-2.84-2.38-.13-.34,0,0Zm7,1.63c0-4.33-7.73-1.76,0,0Zm60.62,38.2c-1.16-2.95-4.57-.06,0,0Zm2.91,2.13c-.43-1.66-1.68.32,0,0Zm24,15.14c2.3-1.71-2.89-.23,0,0ZM36.16,119.74c6.61-2.55-7.09-1.82,0,0ZM132,180.12c-.07-4.27-4.21,1.07,0,0ZM33.55,113.66c4.24-1.44-3.93-1,0,0Zm12.32,6c-.08-1.4-1.31.54,0,0Zm150.3,92.17c5.46-1.1,17.9,2.78,19.91-1.44-6.63-.17-22.93-4.68-23.71,1.07l1.45.23,2.35.14ZM49.78,120.61c.1-4.33-3.38-.16,0,0ZM17.39,98.14c-1.47-8.26-5.6-1.25,0,0Zm7.72,1.94c.1-2.65-7.07-2.39,0,0Zm4.42,2.17c-1.28-1-1,1.3,0,0Zm27.78,17.82c1.31-1.2-3.1-.89,0,0ZM26.59,97.36c-.75-6.24-8.95-.94,0,0ZM10.74,87.08c-.22-2.88-1.54,1.09,0,0Zm2.37-1.78c-.39-3.41-2,.43,0,0Zm13,7.77c5.5-2.16-10-4.47-1.13-.4l1.13.4ZM200.34,200.69c3.53-3.23-4.47-1,0,0Zm21,10.91c1.42-4.17-3.55.55,0,0ZM27.45,86.25c.58-4-4.37.8,0,0ZM8.93,73.84c-1-5.7-.86-15.71,8.65-12.33C4.89,64,26.38,77.3,23.67,66.82c5.34.26,10.45-3.16,7.64,2,10.53-1.16,17.82-10.29,28-9,7.92-1.06,16.57-1.85,25.11-5,7-.5,13.77-8.06,9.92-12.54-9.56-.81-19.58.39-30.15,2.5-11.72,2.43-22.37,7.06-34.19,9-11.53,1.55,2.31,4.26-1,4.87-6,2.08,7.17,3.49-.78,5.69-4.91-.93-10-2.62-7.92-7.8-11,1.44-20.74,6-12,17.25ZM35.54,60.29c2.58-9.53,13.86,7.85,4.23,1.27a6,6,0,0,0-4.23-1.27Zm.5-4.62c3.73-2.78,2,1.56,0,0Zm4.74.08c.34-4.39,10.86,2.32,1.73,1.57l-1.73-1.57Zm6.48-2.61c2.38-2.78.69,2.45,0,0ZM48.93,52c4-4.75,22.34-3,8.88-.47-3.61-2.72-6.38,1.6-8.88.47Zm24-3.71c-.6-13,11.93,4.6,0,0Zm6.81,0c2.49-6.52,9.67-2.62,1.16-1.31.18.7-.26,3.37-1.16,1.31Zm-55,34.62c7.45-4.56-7.89-4,0,0Zm5.51,1.53c2.61-2.78-5.68-1.13,0,0ZM14.05,72.92c4.25-3.27-5-1.24,0,0ZM233.82,210.41c.12-3.8-3.25,1.7,0,0Zm-22.33-15.25c.63-4.36-2.87.38,0,0ZM240,211.88c5.94,0,18-1.85,5.08-1.85-2,.32-11.83.25-5.08,1.85ZM35.11,81.75c4.81-.33,7.53-5.3-.94-5-13.11-1.35,11.57,4.49-1.68,2.82-1.77,1.17,2.51,2.53,2.62,2.2Zm4.24,2.15c-.51-3.09-1.49,1.64,0,0Zm5-13.41c2.08-2.59-2.9-.69,0,0Zm-16-26.75c8.59-2.92,20.33-6.2,24.39,1.44-4.13-5-1.67-9.86,2.23-2.59,5.51,7.34,8.27-3.34,4.69-5.81,4.08,5.08,8.73,7.48,2.73.32,6.52-7.84-13,1-17.49.94-2.14,1-22.09,5.08-16.55,5.7Zm5-9.64c4.9-3.69,16.94,2.21,9.22-3.67-.76-.67-16.93,4.46-9.22,3.67Zm17.86.74c5.73.14-2.47-7.7,4.36-4.15-1.12-3.66-8-4.34-11.3-5.81-1.89,3.35,3.85,10,6.94,10ZM36.53,18.63c2-2.69-3.47,1.37,0,0Zm7.3,1.75c9.24-1.23-2.35-4-1.86-.1l1.86.1ZM30.21,9.72c-6.51-8.5,12.23,1.42,5.62-7.47-5.57-4.43-10.91,5-5.62,7.47Zm83.47,45c3-5.28-12.32-7.12-2-1.87,1,.32.73,2.24,2,1.87Z" transform="translate(0 0)"/><path d="M53.11,251.49q-1,3.91-1.22,13.12c0,1.21-.55,1.81-1.64,1.81A2.3,2.3,0,0,1,48,264.85a20.51,20.51,0,0,0-3.33-6,8,8,0,0,0-4.95-2.39c-2.22-.35-7.73-.53-16.56-.53-2,0-3.34.22-4,.65-.39.27-.58.85-.58,1.75v26.41c0,.89.56,1.32,1.69,1.28q5.19-.06,15-.7a3.41,3.41,0,0,0,2.59-1.26c.45-.68.89-2.43,1.31-5.27A2,2,0,0,1,42,277c1.32.27,1.89.88,1.7,1.81q-1.64,7.94-1.06,20.64c0,1-.6,1.55-1.92,1.63-1.09.12-1.77-.47-2-1.75q-1.51-7.29-5.62-7.79a129.36,129.36,0,0,0-13.38-.49c-.7,0-1,.25-1,.76v26.23a4,4,0,0,0,2.15,4c1.13.58,3.56,1.11,7.29,1.57,1.91.2,2.74,1,2.51,2.51-.24,1.28-1.94,1.79-5.13,1.52a109.75,109.75,0,0,0-22.8.11c-1.67.23-2.5-.45-2.5-2,0-1,.83-1.59,2.5-1.75q5.72-.65,5.71-10V264A10.76,10.76,0,0,0,7,258.11a11.89,11.89,0,0,0-5.1-3.76c-1.56-.7-2.14-1.65-1.75-2.86.19-.73.5-1.14.93-1.22a9.68,9.68,0,0,1,3.09.24q3.68.57,17.31.58,16.1,0,27.81-.7c2.6-.16,3.91.06,3.91.64a1.76,1.76,0,0,1-.06.46Z" transform="translate(0 0)"/><path d="M90.92,325.5c0,1.56-.88,2.24-2.63,2a116.26,116.26,0,0,0-19.93.23,6.13,6.13,0,0,1-3-.11c-.37-.24-.55-.87-.55-1.93S65.92,324,68,323.37s3.18-2.55,3.18-5.74V264.87q0-4.72-1.37-6.94A8.88,8.88,0,0,0,65,254.49c-1.2-.43-1.81-1-1.81-1.81,0-1.16.88-2,2.63-2.62a36.57,36.57,0,0,0,8.22-4q3.5-2.1,4.43-2.1,2.16,0,2.16,3,0-.22-.24,5.83-.17,5.77-.11,11.37l.23,52.06q0,3.56,1.75,5.16c1.16,1.07,3.17,1.78,6,2.13,1.75.19,2.63.85,2.63,2Z" transform="translate(0 0)"/><path d="M143.64,322.06q0,1.23-4.45,3.7c-3,1.66-5.36,2.48-7.15,2.48a5.06,5.06,0,0,1-4-2.21c-1.17-1.48-2-2.22-2.45-2.22A36.85,36.85,0,0,0,120,326.2,23.14,23.14,0,0,1,110,328.6a11.75,11.75,0,0,1-8-2.8,10.64,10.64,0,0,1-3.5-8.4q0-10.08,23.09-14.46,4-.75,4-3.2l.12-3.74q.34-9.56-8.46-9.55-2.51,0-4.75,4.48T106,295.77q-4.79.47-4.78-4,0-2.81,7.11-6.53a31,31,0,0,1,14.35-3.91q11.82,0,11.71,11.26l-.23,24q-.06,3.8,3.2,3.79a17.71,17.71,0,0,0,2.45-.29c1.21-.19,1.91-.29,2.11-.29,1.12,0,1.68.76,1.68,2.27Zm-17.95-13.29a2,2,0,0,0-.67-1.92,3.29,3.29,0,0,0-2.3-.18q-14.06,2.5-14.06,9.16t7.29,6.7a17.75,17.75,0,0,0,6-1.11q3.62-1.28,3.61-3.09Z" transform="translate(0 0)"/><path d="M187,315.36a11.73,11.73,0,0,1-4.76,9.82q-4.74,3.65-13,3.65a52.36,52.36,0,0,1-11-1.17c-3.15-.7-5-1.34-5.48-1.92q-.47-.83-.46-8c0-2.06.46-3.13,1.4-3.21s1.73.39,2.39,1.52q4.36,7.63,14.1,7.64,8.22,0,8.22-5.72a5.42,5.42,0,0,0-1.86-4.19q-2-1.94-7.93-4.49-8.52-3.8-11.37-6.65a10.91,10.91,0,0,1-3.09-8.16,11.39,11.39,0,0,1,4.84-9.8q4.49-3.37,12-3.38a45.07,45.07,0,0,1,8.63.76c2.8.51,4.26,1.12,4.37,1.86q.47,3.27,1.93,9.45c.11.5-.43.91-1.64,1.22s-2.13.06-2.56-.64q-4.61-7.51-11.66-7.52-8,0-8,5.13a5.48,5.48,0,0,0,2.16,4.55q1.92,1.45,9,4.55,7.47,3.21,10.15,5.77a11.73,11.73,0,0,1,3.5,8.92Z" transform="translate(0 0)"/><path d="M255.58,325.56c0,1.36-.92,2.08-2.75,2.16-2.72,0-6.28.23-10.66.58q-3.27.65-4.67-.81a121.4,121.4,0,0,1-15.63-20.76,1.52,1.52,0,0,0-1.34-.93c-.66,0-1.8.58-3.43,1.75a4.72,4.72,0,0,0-2.74,4.31c0,1.32,0,3.23.11,5.72s.7,4.11,1.87,4.89c.81.55,2.7,1,5.65,1.28,1.83.24,2.74.92,2.74,2,0,.9-.14,1.45-.43,1.66a4.16,4.16,0,0,1-2.31.15q-5.84-.53-19.7.58c-2.33.2-3.6-.09-3.79-.87a4.36,4.36,0,0,1-.12-1.17c0-1.2,1.19-2.12,3.56-2.73q3.21-.82,3.21-7.53V264.93c0-3.19-.32-5.4-.94-6.65q-1.28-2.38-5.36-3.73c-1.28-.42-1.93-1-1.93-1.8,0-1.13.92-2,2.74-2.63a36.4,36.4,0,0,0,8.34-4q3.21-2.1,4-2.1,2.4,0,2.4,3,0-.41-.07,5.77,0,4.26,0,11.43l.12,36.5c0,1,.27,1.51.81,1.51a5.25,5.25,0,0,0,2.68-1.51q4.85-3.8,11.89-9.92a4,4,0,0,0,1.41-2.33c0-1.05-1.58-1.79-4.72-2.21A1.93,1.93,0,0,1,224.5,284c.11-1.36.8-1.94,2-1.75a100.81,100.81,0,0,0,12.24.65c3.73,0,7.45.05,11.14.05q1.8.06,1.8,2.16t-2.85,2.16a21.34,21.34,0,0,0-8.45,2q-5.55,2.51-11.84,8.8a1.08,1.08,0,0,0-.47.88c0,.54.66,1.84,2,3.9q7.29,11.08,13.75,16.74c2.77,2.36,5.35,3.55,7.76,3.55a8.48,8.48,0,0,1,3.32.38c.43.25.65.92.65,2Z" transform="translate(0 0)"/></svg>