<svg id="레이어_1" data-name="레이어 1" xmlns="http://www.w3.org/2000/svg" viewBox="0 0 510.16 115.94"><defs><style>.cls-1{fill:#1a1918;}.cls-1,.cls-2{fill-rule:evenodd;}.cls-2{fill:#21609b;}</style></defs><path class="cls-1" d="M489.72,8.65l21.42.11L468.06,67.13c-1.05,1.42-2.66,3-3.47,4.86-2.06,4.79-4.17,15.29-4.17,15.29l-19.6.09s3.05-10.94,2.92-16.77c-.11-5.09-2.71-10.18-4.16-15.29S436.1,40,436.1,40h20.15L459,51.15l30.69-42.5" transform="translate(-0.98 -0.08)"/><path class="cls-1" d="M449.16,20c3.95,2.38,6.38,15.53,6.38,15.53s-20.69.3-31.94.3h-9.73L402.06,87.28H384s11.24-55.88,13.9-66c.86-3.28,5.89-2.72,14.39-2.72h13.57c8.76,0,19-1.11,23.31,1.48" transform="translate(-0.98 -0.08)"/><path class="cls-1" d="M365.06,45.07a10.87,10.87,0,0,0-1.91-7.13c-2.11-3.25-4.06-4-9.62-4.18-15.7-.5-15.39,11.13-15.39,11.13l26.92.18Zm17-13.32C384.38,40,380,59.54,380,59.54s-22.9-.38-35.44,0c-3.89.12-8.56-.42-9.72,1.39-1.64,2.54.59,6.45,2.48,8.11,2.18,1.9,6.42,2.12,7.94,2.31,10.18,1.29,31.48.33,31.48.33L373.05,88s-30.1,1.51-45.16-2.08a15.33,15.33,0,0,1-7.64-4.17,23.71,23.71,0,0,1-1.45-2,18.46,18.46,0,0,1-2-3.6c-3.44-9.16.41-26.72,4.17-36.12.44-1.1,1-2.48,1.57-3.65.72-1.47,1.33-3.12,1.9-4,.39-.6.87-1,1.28-1.56a22.6,22.6,0,0,1,1.5-1.91,28.85,28.85,0,0,1,4.87-4.17c6.27-4.7,17.62-8.34,31.26-6.95,5.14.53,12.89,2.36,16.68,7.65,1,1.41,1.51,4.2,2.08,6.25Z" transform="translate(-0.98 -0.08)"/><path class="cls-1" d="M299.23,18.49l17.51-.1S307,64.69,302,87.28H281.86c-14.08,0-26.63,1.74-32-8.34-5.18-9.79-.24-25.89,2.08-36.83,1.64-7.74,5.1-23.56,5.1-23.56l18.14-.16S270.1,43,268,55.31c-.76,4.41-2.34,8.56-.69,11.82,1.56,3.1,3.75,3.32,10.42,3.47,2.11.05,9,0,9,0l12.51-52.11" transform="translate(-0.98 -0.08)"/><path class="cls-1" d="M217.24,51.84c1.84-6.52,4.51-13.58,4.17-19.45-.37-6.28-5.63-12-9-13.2-10.23-3.62-19.81,1.43-23.62,5.55-4.93,5.34-6.6,11.57-8.34,20.15-1.3,6.37-2.36,13.1,0,18.07,4.18,8.78,17.22,6.86,31.27,6.95,2.08-5.59,3.8-11.86,5.55-18.07Zm24.32-25.71c2,14.55-5.67,30.61-11,44.57,5.39.49,10.11-.07,10.45.33s-3.61,16.67-5,16.71c-4.28.11-18.46.23-24.37.23-19.3,0-37.35,1.26-46.55-8.34-3.74-3.9-6.33-10.58-6.95-15.28-1.05-7.85.26-16.5,2.08-23.63a71.66,71.66,0,0,1,6.95-18.06C175.33,8.51,189.43-2,213.08.43a44,44,0,0,1,15.28,4.86c.29.17,1.28,1,1.51,1.1,5.56,3.54,10.62,12,11.69,19.74Z" transform="translate(-0.98 -0.08)"/><path class="cls-1" d="M156.19,18.57c-1.16,5.32-2.33,11.34-3.56,16.6H133.17c1.51-5.83,2.67-11.61,4.17-16.68,6.23,0,12,.08,18.85.08" transform="translate(-0.98 -0.08)"/><path class="cls-1" d="M132.48,40h18.76c-2.45,13.58-7.31,35.48-11.12,50.72-2.38,9.54-4,16.5-10.42,21.54-.58.45-.91.23-1.39.69-1.19,1.14-6.68,2.45-9.73,2.78-4.94.54-10.54.07-16.61-.05,1.59-5.82,3.39-12.8,4.8-18C121.59,99.49,122,85.48,124.84,72c1.66-7.8,6.69-28.83,7.64-32" transform="translate(-0.98 -0.08)"/><path class="cls-2" d="M88.71,75.46l-.4,1.05C81.46,89.85,69.32,98,52,98.39a50.68,50.68,0,0,1-20.84-4.17,53.8,53.8,0,0,1-25-23.62C-1,56.73-2.31,37.42,12.59,23c.23,0-1.81,3.12-1.58,3.12l-.41,1.34C-.13,61.07,32.94,89.87,65.09,86.58c7.72-.79,17.57-5,23.62-11.12" transform="translate(-0.98 -0.08)"/><path class="cls-2" d="M69.25,61.57a30.8,30.8,0,0,0,21.54-9c-4.37,11.11-17.05,18.25-34,16C42.52,66.61,29,52.29,27.57,37.94c-1-10.44,2.62-16.67,8.61-24.23a25.26,25.26,0,0,0-3,9c-2.28,22.59,18,38.79,36.12,38.91" transform="translate(-0.98 -0.08)"/><path class="cls-2" d="M90,33.51c-1.26,2.89-8.5,8.33-11.69,9-12.66,2.7-20.77-3.3-25-10.13a31.39,31.39,0,0,1-2-4.52c-1.65-5.6-.89-14.07,4-18.45a23.07,23.07,0,0,0-.92,12.16,26.93,26.93,0,0,0,3.35,7.31c2.62,3.81,4.28,4.73,7.64,6.76a20.2,20.2,0,0,0,3.85,1.84c3.19.93,9.92,3.41,20.77-4" transform="translate(-0.98 -0.08)"/></svg>