<svg id="레이어_1" data-name="레이어 1" xmlns="http://www.w3.org/2000/svg" viewBox="0 0 511.41 145.71"><defs><style>.cls-1{fill:#8e714e;}.cls-1,.cls-2,.cls-3,.cls-4,.cls-5,.cls-6{fill-rule:evenodd;}.cls-2{fill:#442d22;}.cls-3{fill:#fff;}.cls-4{fill:#a6a385;}.cls-5{fill:#499d4a;}.cls-6{fill:#58aa50;}</style></defs><path class="cls-1" d="M476.71,60.46c-.46.1-.92,1.11-.92,1.66-.09,3.69-.18,13.48-.18,20.12a.67.67,0,0,0,.55.55c1.38.1,4.71.19,7.57.19,4,0,6.27-.55,7.56-1.11,3.33-1.66,4.89-5.26,4.89-9.23,0-9-6.27-12.36-15.59-12.36a15.19,15.19,0,0,0-3.88.18Zm23.81,41.25c0-9.13-6.73-14.21-18.92-14.21-.55,0-4.42-.09-5.35.09-.27.1-.64.28-.64.56,0,6.55-.1,17,.18,21,.19,1.75,1.48,4.24,3,5,1.66.92,5.44,1.11,8,1.11,7.3,0,13.66-4.06,13.66-13.57ZM457.89,55.39c.92,0,3.69.27,10.8.27,6.73,0,12.08-.18,18.64-.18,8,0,19.1,2.86,19.1,14.86,0,5.9-4.15,10.61-9.6,12.92-.28.09-.28.27,0,.37,7.75,1.93,14.58,6.73,14.58,15.78,0,8.86-5.53,14.48-13.56,18-4.9,2.12-11,2.86-17.17,2.86-4.7,0-17.35-.55-24.36-.37-.74-.27.65-3.6,1.29-4.15a17.33,17.33,0,0,0,4.71-.74c2.49-.64,2.77-1.38,3.14-5.17.18-3.23.18-14.67.18-22.79,0-11.17.09-18.73,0-22.42-.09-2.86-1.11-3.79-3.14-4.34-1.57-.28-4.15-.65-6.27-.92-.46-.47,1.1-3.6,1.66-4Zm-53.25,57.4c2.22,1.75,6.55,2.49,10.43,2.49,5,0,10-.92,14.76-5.26s8.31-11.26,8.31-22.15c0-10.43-4-18.92-12.09-23.9-4.61-2.86-10.52-4.06-17.35-4.06a13.7,13.7,0,0,0-5.17.65,2.72,2.72,0,0,0-.92,1.47c-.18,1.85-.18,16.06-.18,24.36,0,8.59,0,20.58.18,22a5.76,5.76,0,0,0,2,4.43Zm-20.95-57.4c1.76,0,8.49.27,11.72.27,5.82,0,10-.27,20.95-.27,9.23,0,17,2.49,22.52,7.19,6.73,5.82,10.24,13.85,10.24,23.63,0,13.93-6.37,22-12.73,26.58s-14.68,7.47-26.49,7.47c-6.27,0-17.07-.18-26-.28h-.09c-.47-.83.73-4.06,1.47-4.15a14.85,14.85,0,0,0,4.25-.83c1.94-.74,2.3-1.75,2.58-5.17.28-6.36.19-14,.19-22.7,0-6.18.09-18.27-.1-22.15-.27-3.22-1.66-4.06-4.43-4.61a57.09,57.09,0,0,0-5.81-.92c-.37-.65,1.29-3.51,1.75-4.06Z" transform="translate(0 -0.2)"/><path class="cls-2" d="M272,116.39a18.84,18.84,0,0,1-6-1.57,2.88,2.88,0,0,1-.73-1.48c-.19-3.23-.19-12.46-.19-18.64,0-5-.83-9.32-2.95-12.37a12.61,12.61,0,0,0-10.71-5.53c-4.06,0-9.5,2.77-14,6.64-.1.09-.83.74-.74-.28s.18-3,.28-4.43a2.38,2.38,0,0,0-.65-1.93c-2.95,1.47-11.26,3.41-14.3,3.69-2.22.46-2.77,2.58-.46,3.32h.09a20.53,20.53,0,0,1,5.44,2.4,2.87,2.87,0,0,1,.83,2.58c.09,6.92.09,17.54-.18,23.35-.09,2.31-.74,3.14-2.4,3.51l.18-.1a34.26,34.26,0,0,1-3.87.74c-.56.56-.56,3.51,0,4.16,1,0,6.36-.28,10.79-.28,6.1,0,9.23.28,10.8.28a6,6,0,0,0,.46-4.16,17,17,0,0,1-4.24-.64c-1.66-.37-2.13-1.2-2.22-3.14-.18-4.89-.18-15.23-.18-22.24a4.4,4.4,0,0,1,1.11-3.41,13.91,13.91,0,0,1,8.58-3.14,9.56,9.56,0,0,1,6.37,2.12,9.08,9.08,0,0,1,2.95,5.81c.46,4,.28,11.82.28,18.64,0,3.7-.28,4.62-1.67,5.08a17.11,17.11,0,0,1-4.24.83c-.65.65-.46,3.51,0,4.15,2.68,0,5.81-.27,10.43-.27,5.72,0,9.41.27,10.89.27a6.4,6.4,0,0,0,.27-4ZM297.6,81.13c-4.9,0-7.94,3.79-7.94,9.69s2.67,12.92,10.24,12.92c1.29,0,3.69-.55,4.8-1.84,1.75-1.66,2.95-5,2.95-8.49,0-7.66-3.78-12.28-10-12.28ZM297,121.92a7.94,7.94,0,0,0-4,1c-3.88,2.49-5.63,4.89-5.63,7.75a8.16,8.16,0,0,0,3.23,6.64c2.68,2.31,6.37,3.42,11.08,3.42,9.41,0,13.56-5.08,13.56-10.06,0-3.51-1.75-5.81-5.35-7.11-2.59-1.1-7.29-1.66-12.92-1.66Zm.65,24c-5.63,0-9.69-1.2-13.2-3.88a12.14,12.14,0,0,1-4.89-9.14,7.07,7.07,0,0,1,1.84-4.61c1-1.11,3.23-3.23,8.49-6.83.19-.09.28-.18.28-.37a.6.6,0,0,0-.37-.46c-4.34-1.66-5.63-4.34-6-5.81v-.19c-.09-.55-.27-1.11.56-1.66.64-.46,1.57-1,2.58-1.66a38,38,0,0,0,4.25-2.77.68.68,0,0,0,.18-.55.59.59,0,0,0-.37-.46c-6.46-2.13-9.69-6.93-9.69-14.12a14,14,0,0,1,5.91-11.63c2.58-2,9-4.52,13.29-4.52h.27c4.34.09,6.74,1,10.15,2.21a17,17,0,0,0,6,.93c3.6,0,5.17-1.11,6.46-2.4a5,5,0,0,1,.37,1.84,7,7,0,0,1-1.2,4.25,5.26,5.26,0,0,1-4.06,1.75H318a19.27,19.27,0,0,1-2.4-.37l-.37.19c-.09.18,0,.36.09.64l.1.19a35,35,0,0,1,.55,4c0,7.57-3,10.89-6.28,13.38A21.18,21.18,0,0,1,298.89,108a11.72,11.72,0,0,0-1.29.09c-.47,0-1.11.09-1.2.09h-.1c-.74.19-2.58,1.11-2.58,2.68,0,1.38.83,3,4.8,3.32.83.09,1.66.09,2.58.19,5.26.36,11.81.83,14.86,1.84a10.35,10.35,0,0,1,6.92,9.88c0,6.82-4.89,13.19-13,17.16a29.77,29.77,0,0,1-12.27,2.68ZM350.2,81.6a8.6,8.6,0,0,0-5,1.38c-3.6,2.21-5.44,6.64-5.44,13.1,0,12.09,6.09,20.58,14.76,20.58a9.41,9.41,0,0,0,6.37-2.21c2.68-2.22,4.06-6.65,4.06-12.83,0-12-6-20-14.76-20Zm1.66,39.49c-15.69,0-21.32-11.53-21.32-22.33,0-7.57,3-13.38,9.14-17.53a27.7,27.7,0,0,1,14.11-4.16c12,0,20.4,8.59,20.4,21,0,8.4-3.32,15-9.69,19.1a25.62,25.62,0,0,1-12.64,4ZM187.41,81.6a8.57,8.57,0,0,0-5,1.38c-3.6,2.21-5.45,6.64-5.45,13.1,0,12.09,6.09,20.58,14.77,20.58a9.44,9.44,0,0,0,6.37-2.21c2.67-2.22,4.06-6.65,4.06-12.83,0-12-5.91-20-14.77-20Zm1.66,39.49c-15.69,0-21.32-11.53-21.32-22.33,0-7.57,3.05-13.38,9.14-17.53A27.77,27.77,0,0,1,191,77.07c12,0,20.39,8.59,20.39,21,0,8.4-3.32,15-9.69,19.1a25,25,0,0,1-12.64,4Zm-105.48-.92a4,4,0,0,1-.27-2.12,3.24,3.24,0,0,1,.27-1.39,31.48,31.48,0,0,0,4.06-.83c1.85-.46,2.59-1.47,2.68-3.78.28-5.54.28-16.06.19-23.35v-.18a2.8,2.8,0,0,0-1-2.59A21,21,0,0,0,84,83.53c-.83-.27-1.38-.74-1.29-1.29s.55-1.2,1.75-1.38a67.83,67.83,0,0,0,14.12-3.6A2.23,2.23,0,0,1,99,78.73l-.1,1c-.09,1-.18,2.21-.18,3.41a.72.72,0,0,0,.74.65,1.32,1.32,0,0,0,.55-.18c5.91-4.62,11.26-6.28,14-6.28,4.52,0,8,2.12,10.7,6.55a.7.7,0,0,0,.65.37A.64.64,0,0,0,126,84c5.45-4.15,10.89-6.64,14.49-6.64,8.58,0,13.66,6.37,13.66,17.16,0,3,0,7-.1,10.62,0,3.23-.09,6.18-.09,8.3a2.93,2.93,0,0,0,1.66,2.22,20.09,20.09,0,0,0,5.36,1.29H161a7.49,7.49,0,0,1-.56,3.51,20.78,20.78,0,0,1-2.3-.1c-1.76-.09-4.25-.18-7-.18-5.72,0-8.67.09-11.53.28a8.81,8.81,0,0,1,0-3.51,29,29,0,0,0,3.51-.83c1.84-.56,2.3-1.39,2.4-3.79,0-1.75.36-16.7-.19-20.3a9.1,9.1,0,0,0-9.41-8,16.43,16.43,0,0,0-9.42,3.6,1.69,1.69,0,0,0-.36.93v.09a43.69,43.69,0,0,1,.36,7.57v6c0,4.16-.09,8,0,11a2.7,2.7,0,0,0,2.22,2.86c.55.09.92.18,1.38.27l3,.65a5,5,0,0,1-.1,2.58,1.83,1.83,0,0,1-.36.93c-3.14-.1-6.37-.19-11.08-.19-1.38,0-3.78.09-5.81.09-1.66,0-3.23.1-4.15.1a4.74,4.74,0,0,1-.28-1.85,2.82,2.82,0,0,1,.37-1.66,6.38,6.38,0,0,1,1.29-.19c1.11-.18,2-.36,3-.55,1.57-.46,2.12-1.29,2.22-3.32.27-4.61.55-17.81-.1-21.13-1.1-5.36-4.15-8-9-8a16.89,16.89,0,0,0-9.41,3.6,3,3,0,0,0-.83,2.12v5.44c0,6.65,0,15,.09,18.55a2.85,2.85,0,0,0,2.58,2.86,17.17,17.17,0,0,0,2.13.37l1.66.28a7.83,7.83,0,0,1-.28,3.51c-.92,0-2-.1-3.32-.1-1.94-.09-4.43-.18-7.2-.18-3.23,0-5.54.09-7.38.18a23,23,0,0,0-3.42-.18Z" transform="translate(0 -0.2)"/><path class="cls-3" d="M35.05,142.32,31.27,141s.46-19.28-6.46-20.67c-4.61-5.35.74-227,17.35-.73,0,0-5.72,2.86-6.74,7.75s-.37,14.95-.37,14.95Z" transform="translate(0 -0.2)"/><path class="cls-4" d="M35.05,142.32,31.27,141s.46-19.28-6.46-20.67c-4.61-5.35.74-227,17.35-.73,0,0-5.72,2.86-6.74,7.75s-.37,14.95-.37,14.95Z" transform="translate(0 -0.2)"/><path class="cls-3" d="M37.08,123.68S70.21,101.9,62.46,56.59c-7.47-32.95-25.1-43.74-27-47.9A46.53,46.53,0,0,1,31.27.57l1.38,91.64c0,.09-2.86,28.05,4.43,31.47" transform="translate(0 -0.2)"/><path class="cls-5" d="M37.08,123.68S70.21,101.9,62.46,56.59c-7.47-32.95-25.1-43.74-27-47.9A46.53,46.53,0,0,1,31.27.57l1.38,91.64c0,.09-2.86,28.05,4.43,31.47" transform="translate(0 -0.2)"/><path class="cls-3" d="M29.33,124.88S-1.77,103.65.08,66.28,23.8,10.54,28,7.22c2.77-3,2.86-4.06,3.05-7C33,4.36,32.65,62.31,32.93,69.14c.83,26.3-1.48,50.75-3.6,55.74Z" transform="translate(0 -0.2)"/><path class="cls-6" d="M29.33,124.88S-1.77,103.65.08,66.28,23.8,10.54,28,7.22c2.77-3,2.86-4.06,3.05-7C33,4.36,32.65,62.31,32.93,69.14c.83,26.3-1.48,50.75-3.6,55.74Z" transform="translate(0 -0.2)"/></svg>