<svg id="layer_1" data-name="layer 1" xmlns="http://www.w3.org/2000/svg" viewBox="0 0 255.02 255.01"><defs><style>.cls-1{fill:#464342;}</style></defs><path class="cls-1" d="M18.12,127.5a109.39,109.39,0,0,0,61.65,98.44L27.59,83a108.91,108.91,0,0,0-9.47,44.51ZM201.35,122c0-13.52-4.86-22.88-9-30.17-5.54-9-10.74-16.64-10.74-25.65,0-10,7.63-19.41,18.37-19.41.49,0,1,.06,1.42.09A109.35,109.35,0,0,0,36.11,67.43c2.57.07,5,.13,7,.13,11.44,0,29.15-1.39,29.15-1.39,5.9-.35,6.6,8.31.71,9,0,0-5.93.7-12.52,1L100.32,194.7l23.94-71.79L107.21,76.22c-5.89-.35-11.47-1-11.47-1-5.89-.34-5.2-9.35.69-9,0,0,18.07,1.39,28.82,1.39,11.44,0,29.15-1.39,29.15-1.39,5.9-.34,6.59,8.32.7,9,0,0-5.94.7-12.52,1L182.11,193.8,193,157.34c4.73-15.13,8.33-26,8.33-35.36Zm-71.93,15.09L96.61,232.43a109.39,109.39,0,0,0,67.22-1.74,9.35,9.35,0,0,1-.78-1.51l-33.63-92.11Zm94.06-62a84.11,84.11,0,0,1,.74,11.25c0,11.1-2.07,23.58-8.32,39.18l-33.41,96.6a109.4,109.4,0,0,0,41-147Zm-96-75A127.51,127.51,0,1,0,255,127.5,127.65,127.65,0,0,0,127.5,0Zm0,249.16A121.66,121.66,0,1,1,249.16,127.5,121.79,121.79,0,0,1,127.5,249.16Z"/></svg>